G04 EAGLE Gerber RS-274X export*
G75*
%MOMM*%
%FSLAX34Y34*%
%LPD*%
%INSolderpaste Top*%
%IPPOS*%
%AMOC8*
5,1,8,0,0,1.08239X$1,22.5*%
G01*
%ADD10R,2.000000X1.200000*%
%ADD11R,1.350000X0.600000*%
%ADD12R,1.000000X1.100000*%
%ADD13C,0.300000*%
%ADD14R,0.650000X2.250000*%
%ADD15R,1.100000X1.000000*%


D10*
X14050Y129600D03*
X14050Y73600D03*
D11*
X50800Y116600D03*
X50800Y106600D03*
X50800Y96600D03*
X50800Y86600D03*
D10*
X290750Y73600D03*
X290750Y129600D03*
D11*
X254000Y86600D03*
X254000Y96600D03*
X254000Y106600D03*
X254000Y116600D03*
D12*
X175260Y71510D03*
X175260Y88510D03*
D13*
X187000Y85280D02*
X194000Y85280D01*
X187000Y85280D02*
X187000Y92280D01*
X194000Y92280D01*
X194000Y85280D01*
X194000Y88130D02*
X187000Y88130D01*
X187000Y90980D02*
X194000Y90980D01*
X194000Y67740D02*
X187000Y67740D01*
X187000Y74740D01*
X194000Y74740D01*
X194000Y67740D01*
X194000Y70590D02*
X187000Y70590D01*
X187000Y73440D02*
X194000Y73440D01*
D12*
X144780Y88510D03*
X144780Y71510D03*
X129540Y88510D03*
X129540Y71510D03*
X160020Y88510D03*
X160020Y71510D03*
D14*
X196850Y212600D03*
X184150Y212600D03*
X171450Y212600D03*
X158750Y212600D03*
X146050Y212600D03*
X133350Y212600D03*
X120650Y212600D03*
X107950Y212600D03*
X107950Y117600D03*
X120650Y117600D03*
X133350Y117600D03*
X146050Y117600D03*
X158750Y117600D03*
X171450Y117600D03*
X184150Y117600D03*
X196850Y117600D03*
D12*
X114300Y71510D03*
X114300Y88510D03*
X99060Y71510D03*
X99060Y88510D03*
D15*
X268850Y177800D03*
X251850Y177800D03*
D12*
X251460Y162170D03*
X251460Y145170D03*
D15*
X35950Y177800D03*
X52950Y177800D03*
D12*
X53340Y162170D03*
X53340Y145170D03*
X222250Y135500D03*
X222250Y118500D03*
D10*
X323930Y129600D03*
X323930Y73600D03*
D11*
X360680Y116600D03*
X360680Y106600D03*
X360680Y96600D03*
X360680Y86600D03*
D10*
X600630Y73600D03*
X600630Y129600D03*
D11*
X563880Y86600D03*
X563880Y96600D03*
X563880Y106600D03*
X563880Y116600D03*
D12*
X485140Y71510D03*
X485140Y88510D03*
D13*
X496880Y85280D02*
X503880Y85280D01*
X496880Y85280D02*
X496880Y92280D01*
X503880Y92280D01*
X503880Y85280D01*
X503880Y88130D02*
X496880Y88130D01*
X496880Y90980D02*
X503880Y90980D01*
X503880Y67740D02*
X496880Y67740D01*
X496880Y74740D01*
X503880Y74740D01*
X503880Y67740D01*
X503880Y70590D02*
X496880Y70590D01*
X496880Y73440D02*
X503880Y73440D01*
D12*
X454660Y88510D03*
X454660Y71510D03*
X439420Y88510D03*
X439420Y71510D03*
X469900Y88510D03*
X469900Y71510D03*
D14*
X506730Y212600D03*
X494030Y212600D03*
X481330Y212600D03*
X468630Y212600D03*
X455930Y212600D03*
X443230Y212600D03*
X430530Y212600D03*
X417830Y212600D03*
X417830Y117600D03*
X430530Y117600D03*
X443230Y117600D03*
X455930Y117600D03*
X468630Y117600D03*
X481330Y117600D03*
X494030Y117600D03*
X506730Y117600D03*
D12*
X424180Y71510D03*
X424180Y88510D03*
X408940Y71510D03*
X408940Y88510D03*
D15*
X578730Y177800D03*
X561730Y177800D03*
D12*
X561340Y162170D03*
X561340Y145170D03*
D15*
X345830Y177800D03*
X362830Y177800D03*
D12*
X363220Y162170D03*
X363220Y145170D03*
X532130Y135500D03*
X532130Y118500D03*
D10*
X633810Y129600D03*
X633810Y73600D03*
D11*
X670560Y116600D03*
X670560Y106600D03*
X670560Y96600D03*
X670560Y86600D03*
D10*
X910510Y73600D03*
X910510Y129600D03*
D11*
X873760Y86600D03*
X873760Y96600D03*
X873760Y106600D03*
X873760Y116600D03*
D12*
X795020Y71510D03*
X795020Y88510D03*
D13*
X806760Y85280D02*
X813760Y85280D01*
X806760Y85280D02*
X806760Y92280D01*
X813760Y92280D01*
X813760Y85280D01*
X813760Y88130D02*
X806760Y88130D01*
X806760Y90980D02*
X813760Y90980D01*
X813760Y67740D02*
X806760Y67740D01*
X806760Y74740D01*
X813760Y74740D01*
X813760Y67740D01*
X813760Y70590D02*
X806760Y70590D01*
X806760Y73440D02*
X813760Y73440D01*
D12*
X764540Y88510D03*
X764540Y71510D03*
X749300Y88510D03*
X749300Y71510D03*
X779780Y88510D03*
X779780Y71510D03*
D14*
X816610Y212600D03*
X803910Y212600D03*
X791210Y212600D03*
X778510Y212600D03*
X765810Y212600D03*
X753110Y212600D03*
X740410Y212600D03*
X727710Y212600D03*
X727710Y117600D03*
X740410Y117600D03*
X753110Y117600D03*
X765810Y117600D03*
X778510Y117600D03*
X791210Y117600D03*
X803910Y117600D03*
X816610Y117600D03*
D12*
X734060Y71510D03*
X734060Y88510D03*
X718820Y71510D03*
X718820Y88510D03*
D15*
X888610Y177800D03*
X871610Y177800D03*
D12*
X871220Y162170D03*
X871220Y145170D03*
D15*
X655710Y177800D03*
X672710Y177800D03*
D12*
X673100Y162170D03*
X673100Y145170D03*
X842010Y135500D03*
X842010Y118500D03*
D10*
X943690Y129600D03*
X943690Y73600D03*
D11*
X980440Y116600D03*
X980440Y106600D03*
X980440Y96600D03*
X980440Y86600D03*
D10*
X1220390Y73600D03*
X1220390Y129600D03*
D11*
X1183640Y86600D03*
X1183640Y96600D03*
X1183640Y106600D03*
X1183640Y116600D03*
D12*
X1104900Y71510D03*
X1104900Y88510D03*
D13*
X1116640Y85280D02*
X1123640Y85280D01*
X1116640Y85280D02*
X1116640Y92280D01*
X1123640Y92280D01*
X1123640Y85280D01*
X1123640Y88130D02*
X1116640Y88130D01*
X1116640Y90980D02*
X1123640Y90980D01*
X1123640Y67740D02*
X1116640Y67740D01*
X1116640Y74740D01*
X1123640Y74740D01*
X1123640Y67740D01*
X1123640Y70590D02*
X1116640Y70590D01*
X1116640Y73440D02*
X1123640Y73440D01*
D12*
X1074420Y88510D03*
X1074420Y71510D03*
X1059180Y88510D03*
X1059180Y71510D03*
X1089660Y88510D03*
X1089660Y71510D03*
D14*
X1126490Y212600D03*
X1113790Y212600D03*
X1101090Y212600D03*
X1088390Y212600D03*
X1075690Y212600D03*
X1062990Y212600D03*
X1050290Y212600D03*
X1037590Y212600D03*
X1037590Y117600D03*
X1050290Y117600D03*
X1062990Y117600D03*
X1075690Y117600D03*
X1088390Y117600D03*
X1101090Y117600D03*
X1113790Y117600D03*
X1126490Y117600D03*
D12*
X1043940Y71510D03*
X1043940Y88510D03*
X1028700Y71510D03*
X1028700Y88510D03*
D15*
X1198490Y177800D03*
X1181490Y177800D03*
D12*
X1181100Y162170D03*
X1181100Y145170D03*
D15*
X965590Y177800D03*
X982590Y177800D03*
D12*
X982980Y162170D03*
X982980Y145170D03*
X1151890Y135500D03*
X1151890Y118500D03*
D10*
X14050Y515680D03*
X14050Y459680D03*
D11*
X50800Y502680D03*
X50800Y492680D03*
X50800Y482680D03*
X50800Y472680D03*
D10*
X290750Y459680D03*
X290750Y515680D03*
D11*
X254000Y472680D03*
X254000Y482680D03*
X254000Y492680D03*
X254000Y502680D03*
D12*
X175260Y457590D03*
X175260Y474590D03*
D13*
X187000Y471360D02*
X194000Y471360D01*
X187000Y471360D02*
X187000Y478360D01*
X194000Y478360D01*
X194000Y471360D01*
X194000Y474210D02*
X187000Y474210D01*
X187000Y477060D02*
X194000Y477060D01*
X194000Y453820D02*
X187000Y453820D01*
X187000Y460820D01*
X194000Y460820D01*
X194000Y453820D01*
X194000Y456670D02*
X187000Y456670D01*
X187000Y459520D02*
X194000Y459520D01*
D12*
X144780Y474590D03*
X144780Y457590D03*
X129540Y474590D03*
X129540Y457590D03*
X160020Y474590D03*
X160020Y457590D03*
D14*
X196850Y598680D03*
X184150Y598680D03*
X171450Y598680D03*
X158750Y598680D03*
X146050Y598680D03*
X133350Y598680D03*
X120650Y598680D03*
X107950Y598680D03*
X107950Y503680D03*
X120650Y503680D03*
X133350Y503680D03*
X146050Y503680D03*
X158750Y503680D03*
X171450Y503680D03*
X184150Y503680D03*
X196850Y503680D03*
D12*
X114300Y457590D03*
X114300Y474590D03*
X99060Y457590D03*
X99060Y474590D03*
D15*
X268850Y563880D03*
X251850Y563880D03*
D12*
X251460Y548250D03*
X251460Y531250D03*
D15*
X35950Y563880D03*
X52950Y563880D03*
D12*
X53340Y548250D03*
X53340Y531250D03*
X222250Y521580D03*
X222250Y504580D03*
D10*
X323930Y515680D03*
X323930Y459680D03*
D11*
X360680Y502680D03*
X360680Y492680D03*
X360680Y482680D03*
X360680Y472680D03*
D10*
X600630Y459680D03*
X600630Y515680D03*
D11*
X563880Y472680D03*
X563880Y482680D03*
X563880Y492680D03*
X563880Y502680D03*
D12*
X485140Y457590D03*
X485140Y474590D03*
D13*
X496880Y471360D02*
X503880Y471360D01*
X496880Y471360D02*
X496880Y478360D01*
X503880Y478360D01*
X503880Y471360D01*
X503880Y474210D02*
X496880Y474210D01*
X496880Y477060D02*
X503880Y477060D01*
X503880Y453820D02*
X496880Y453820D01*
X496880Y460820D01*
X503880Y460820D01*
X503880Y453820D01*
X503880Y456670D02*
X496880Y456670D01*
X496880Y459520D02*
X503880Y459520D01*
D12*
X454660Y474590D03*
X454660Y457590D03*
X439420Y474590D03*
X439420Y457590D03*
X469900Y474590D03*
X469900Y457590D03*
D14*
X506730Y598680D03*
X494030Y598680D03*
X481330Y598680D03*
X468630Y598680D03*
X455930Y598680D03*
X443230Y598680D03*
X430530Y598680D03*
X417830Y598680D03*
X417830Y503680D03*
X430530Y503680D03*
X443230Y503680D03*
X455930Y503680D03*
X468630Y503680D03*
X481330Y503680D03*
X494030Y503680D03*
X506730Y503680D03*
D12*
X424180Y457590D03*
X424180Y474590D03*
X408940Y457590D03*
X408940Y474590D03*
D15*
X578730Y563880D03*
X561730Y563880D03*
D12*
X561340Y548250D03*
X561340Y531250D03*
D15*
X345830Y563880D03*
X362830Y563880D03*
D12*
X363220Y548250D03*
X363220Y531250D03*
X532130Y521580D03*
X532130Y504580D03*
D10*
X633810Y515680D03*
X633810Y459680D03*
D11*
X670560Y502680D03*
X670560Y492680D03*
X670560Y482680D03*
X670560Y472680D03*
D10*
X910510Y459680D03*
X910510Y515680D03*
D11*
X873760Y472680D03*
X873760Y482680D03*
X873760Y492680D03*
X873760Y502680D03*
D12*
X795020Y457590D03*
X795020Y474590D03*
D13*
X806760Y471360D02*
X813760Y471360D01*
X806760Y471360D02*
X806760Y478360D01*
X813760Y478360D01*
X813760Y471360D01*
X813760Y474210D02*
X806760Y474210D01*
X806760Y477060D02*
X813760Y477060D01*
X813760Y453820D02*
X806760Y453820D01*
X806760Y460820D01*
X813760Y460820D01*
X813760Y453820D01*
X813760Y456670D02*
X806760Y456670D01*
X806760Y459520D02*
X813760Y459520D01*
D12*
X764540Y474590D03*
X764540Y457590D03*
X749300Y474590D03*
X749300Y457590D03*
X779780Y474590D03*
X779780Y457590D03*
D14*
X816610Y598680D03*
X803910Y598680D03*
X791210Y598680D03*
X778510Y598680D03*
X765810Y598680D03*
X753110Y598680D03*
X740410Y598680D03*
X727710Y598680D03*
X727710Y503680D03*
X740410Y503680D03*
X753110Y503680D03*
X765810Y503680D03*
X778510Y503680D03*
X791210Y503680D03*
X803910Y503680D03*
X816610Y503680D03*
D12*
X734060Y457590D03*
X734060Y474590D03*
X718820Y457590D03*
X718820Y474590D03*
D15*
X888610Y563880D03*
X871610Y563880D03*
D12*
X871220Y548250D03*
X871220Y531250D03*
D15*
X655710Y563880D03*
X672710Y563880D03*
D12*
X673100Y548250D03*
X673100Y531250D03*
X842010Y521580D03*
X842010Y504580D03*
D10*
X943690Y515680D03*
X943690Y459680D03*
D11*
X980440Y502680D03*
X980440Y492680D03*
X980440Y482680D03*
X980440Y472680D03*
D10*
X1220390Y459680D03*
X1220390Y515680D03*
D11*
X1183640Y472680D03*
X1183640Y482680D03*
X1183640Y492680D03*
X1183640Y502680D03*
D12*
X1104900Y457590D03*
X1104900Y474590D03*
D13*
X1116640Y471360D02*
X1123640Y471360D01*
X1116640Y471360D02*
X1116640Y478360D01*
X1123640Y478360D01*
X1123640Y471360D01*
X1123640Y474210D02*
X1116640Y474210D01*
X1116640Y477060D02*
X1123640Y477060D01*
X1123640Y453820D02*
X1116640Y453820D01*
X1116640Y460820D01*
X1123640Y460820D01*
X1123640Y453820D01*
X1123640Y456670D02*
X1116640Y456670D01*
X1116640Y459520D02*
X1123640Y459520D01*
D12*
X1074420Y474590D03*
X1074420Y457590D03*
X1059180Y474590D03*
X1059180Y457590D03*
X1089660Y474590D03*
X1089660Y457590D03*
D14*
X1126490Y598680D03*
X1113790Y598680D03*
X1101090Y598680D03*
X1088390Y598680D03*
X1075690Y598680D03*
X1062990Y598680D03*
X1050290Y598680D03*
X1037590Y598680D03*
X1037590Y503680D03*
X1050290Y503680D03*
X1062990Y503680D03*
X1075690Y503680D03*
X1088390Y503680D03*
X1101090Y503680D03*
X1113790Y503680D03*
X1126490Y503680D03*
D12*
X1043940Y457590D03*
X1043940Y474590D03*
X1028700Y457590D03*
X1028700Y474590D03*
D15*
X1198490Y563880D03*
X1181490Y563880D03*
D12*
X1181100Y548250D03*
X1181100Y531250D03*
D15*
X965590Y563880D03*
X982590Y563880D03*
D12*
X982980Y548250D03*
X982980Y531250D03*
X1151890Y521580D03*
X1151890Y504580D03*
D10*
X14050Y901760D03*
X14050Y845760D03*
D11*
X50800Y888760D03*
X50800Y878760D03*
X50800Y868760D03*
X50800Y858760D03*
D10*
X290750Y845760D03*
X290750Y901760D03*
D11*
X254000Y858760D03*
X254000Y868760D03*
X254000Y878760D03*
X254000Y888760D03*
D12*
X175260Y843670D03*
X175260Y860670D03*
D13*
X187000Y857440D02*
X194000Y857440D01*
X187000Y857440D02*
X187000Y864440D01*
X194000Y864440D01*
X194000Y857440D01*
X194000Y860290D02*
X187000Y860290D01*
X187000Y863140D02*
X194000Y863140D01*
X194000Y839900D02*
X187000Y839900D01*
X187000Y846900D01*
X194000Y846900D01*
X194000Y839900D01*
X194000Y842750D02*
X187000Y842750D01*
X187000Y845600D02*
X194000Y845600D01*
D12*
X144780Y860670D03*
X144780Y843670D03*
X129540Y860670D03*
X129540Y843670D03*
X160020Y860670D03*
X160020Y843670D03*
D14*
X196850Y984760D03*
X184150Y984760D03*
X171450Y984760D03*
X158750Y984760D03*
X146050Y984760D03*
X133350Y984760D03*
X120650Y984760D03*
X107950Y984760D03*
X107950Y889760D03*
X120650Y889760D03*
X133350Y889760D03*
X146050Y889760D03*
X158750Y889760D03*
X171450Y889760D03*
X184150Y889760D03*
X196850Y889760D03*
D12*
X114300Y843670D03*
X114300Y860670D03*
X99060Y843670D03*
X99060Y860670D03*
D15*
X268850Y949960D03*
X251850Y949960D03*
D12*
X251460Y934330D03*
X251460Y917330D03*
D15*
X35950Y949960D03*
X52950Y949960D03*
D12*
X53340Y934330D03*
X53340Y917330D03*
X222250Y907660D03*
X222250Y890660D03*
D10*
X323930Y901760D03*
X323930Y845760D03*
D11*
X360680Y888760D03*
X360680Y878760D03*
X360680Y868760D03*
X360680Y858760D03*
D10*
X600630Y845760D03*
X600630Y901760D03*
D11*
X563880Y858760D03*
X563880Y868760D03*
X563880Y878760D03*
X563880Y888760D03*
D12*
X485140Y843670D03*
X485140Y860670D03*
D13*
X496880Y857440D02*
X503880Y857440D01*
X496880Y857440D02*
X496880Y864440D01*
X503880Y864440D01*
X503880Y857440D01*
X503880Y860290D02*
X496880Y860290D01*
X496880Y863140D02*
X503880Y863140D01*
X503880Y839900D02*
X496880Y839900D01*
X496880Y846900D01*
X503880Y846900D01*
X503880Y839900D01*
X503880Y842750D02*
X496880Y842750D01*
X496880Y845600D02*
X503880Y845600D01*
D12*
X454660Y860670D03*
X454660Y843670D03*
X439420Y860670D03*
X439420Y843670D03*
X469900Y860670D03*
X469900Y843670D03*
D14*
X506730Y984760D03*
X494030Y984760D03*
X481330Y984760D03*
X468630Y984760D03*
X455930Y984760D03*
X443230Y984760D03*
X430530Y984760D03*
X417830Y984760D03*
X417830Y889760D03*
X430530Y889760D03*
X443230Y889760D03*
X455930Y889760D03*
X468630Y889760D03*
X481330Y889760D03*
X494030Y889760D03*
X506730Y889760D03*
D12*
X424180Y843670D03*
X424180Y860670D03*
X408940Y843670D03*
X408940Y860670D03*
D15*
X578730Y949960D03*
X561730Y949960D03*
D12*
X561340Y934330D03*
X561340Y917330D03*
D15*
X345830Y949960D03*
X362830Y949960D03*
D12*
X363220Y934330D03*
X363220Y917330D03*
X532130Y907660D03*
X532130Y890660D03*
D10*
X633810Y901760D03*
X633810Y845760D03*
D11*
X670560Y888760D03*
X670560Y878760D03*
X670560Y868760D03*
X670560Y858760D03*
D10*
X910510Y845760D03*
X910510Y901760D03*
D11*
X873760Y858760D03*
X873760Y868760D03*
X873760Y878760D03*
X873760Y888760D03*
D12*
X795020Y843670D03*
X795020Y860670D03*
D13*
X806760Y857440D02*
X813760Y857440D01*
X806760Y857440D02*
X806760Y864440D01*
X813760Y864440D01*
X813760Y857440D01*
X813760Y860290D02*
X806760Y860290D01*
X806760Y863140D02*
X813760Y863140D01*
X813760Y839900D02*
X806760Y839900D01*
X806760Y846900D01*
X813760Y846900D01*
X813760Y839900D01*
X813760Y842750D02*
X806760Y842750D01*
X806760Y845600D02*
X813760Y845600D01*
D12*
X764540Y860670D03*
X764540Y843670D03*
X749300Y860670D03*
X749300Y843670D03*
X779780Y860670D03*
X779780Y843670D03*
D14*
X816610Y984760D03*
X803910Y984760D03*
X791210Y984760D03*
X778510Y984760D03*
X765810Y984760D03*
X753110Y984760D03*
X740410Y984760D03*
X727710Y984760D03*
X727710Y889760D03*
X740410Y889760D03*
X753110Y889760D03*
X765810Y889760D03*
X778510Y889760D03*
X791210Y889760D03*
X803910Y889760D03*
X816610Y889760D03*
D12*
X734060Y843670D03*
X734060Y860670D03*
X718820Y843670D03*
X718820Y860670D03*
D15*
X888610Y949960D03*
X871610Y949960D03*
D12*
X871220Y934330D03*
X871220Y917330D03*
D15*
X655710Y949960D03*
X672710Y949960D03*
D12*
X673100Y934330D03*
X673100Y917330D03*
X842010Y907660D03*
X842010Y890660D03*
D10*
X943690Y901760D03*
X943690Y845760D03*
D11*
X980440Y888760D03*
X980440Y878760D03*
X980440Y868760D03*
X980440Y858760D03*
D10*
X1220390Y845760D03*
X1220390Y901760D03*
D11*
X1183640Y858760D03*
X1183640Y868760D03*
X1183640Y878760D03*
X1183640Y888760D03*
D12*
X1104900Y843670D03*
X1104900Y860670D03*
D13*
X1116640Y857440D02*
X1123640Y857440D01*
X1116640Y857440D02*
X1116640Y864440D01*
X1123640Y864440D01*
X1123640Y857440D01*
X1123640Y860290D02*
X1116640Y860290D01*
X1116640Y863140D02*
X1123640Y863140D01*
X1123640Y839900D02*
X1116640Y839900D01*
X1116640Y846900D01*
X1123640Y846900D01*
X1123640Y839900D01*
X1123640Y842750D02*
X1116640Y842750D01*
X1116640Y845600D02*
X1123640Y845600D01*
D12*
X1074420Y860670D03*
X1074420Y843670D03*
X1059180Y860670D03*
X1059180Y843670D03*
X1089660Y860670D03*
X1089660Y843670D03*
D14*
X1126490Y984760D03*
X1113790Y984760D03*
X1101090Y984760D03*
X1088390Y984760D03*
X1075690Y984760D03*
X1062990Y984760D03*
X1050290Y984760D03*
X1037590Y984760D03*
X1037590Y889760D03*
X1050290Y889760D03*
X1062990Y889760D03*
X1075690Y889760D03*
X1088390Y889760D03*
X1101090Y889760D03*
X1113790Y889760D03*
X1126490Y889760D03*
D12*
X1043940Y843670D03*
X1043940Y860670D03*
X1028700Y843670D03*
X1028700Y860670D03*
D15*
X1198490Y949960D03*
X1181490Y949960D03*
D12*
X1181100Y934330D03*
X1181100Y917330D03*
D15*
X965590Y949960D03*
X982590Y949960D03*
D12*
X982980Y934330D03*
X982980Y917330D03*
X1151890Y907660D03*
X1151890Y890660D03*
M02*
