G04 EAGLE Gerber RS-274X export*
G75*
%MOMM*%
%FSLAX34Y34*%
%LPD*%
%INSoldermask Bottom*%
%IPPOS*%
%AMOC8*
5,1,8,0,0,1.08239X$1,22.5*%
G01*
%ADD10C,3.402000*%
%ADD11C,0.735000*%
%ADD12C,1.979600*%
%ADD13R,0.760400X1.370000*%
%ADD14C,10.260000*%
%ADD15C,1.778000*%
%ADD16R,11.430000X11.430000*%
%ADD17R,1.370000X0.760400*%
%ADD18C,1.100000*%
%ADD19C,1.270000*%
%ADD20C,1.600000*%

G36*
X268035Y952512D02*
X268035Y952512D01*
X268101Y952514D01*
X268144Y952532D01*
X268191Y952540D01*
X268248Y952574D01*
X268308Y952599D01*
X268343Y952630D01*
X268384Y952655D01*
X268426Y952706D01*
X268474Y952750D01*
X268496Y952792D01*
X268525Y952829D01*
X268546Y952891D01*
X268577Y952950D01*
X268585Y953004D01*
X268597Y953041D01*
X268596Y953081D01*
X268604Y953135D01*
X268604Y956945D01*
X268593Y957010D01*
X268591Y957076D01*
X268573Y957119D01*
X268565Y957166D01*
X268531Y957223D01*
X268506Y957283D01*
X268475Y957318D01*
X268450Y957359D01*
X268399Y957401D01*
X268355Y957449D01*
X268313Y957471D01*
X268276Y957500D01*
X268214Y957521D01*
X268155Y957552D01*
X268101Y957560D01*
X268064Y957572D01*
X268024Y957571D01*
X267970Y957579D01*
X265430Y957579D01*
X265365Y957568D01*
X265299Y957566D01*
X265256Y957548D01*
X265209Y957540D01*
X265152Y957506D01*
X265092Y957481D01*
X265057Y957450D01*
X265016Y957425D01*
X264975Y957374D01*
X264926Y957330D01*
X264904Y957288D01*
X264875Y957251D01*
X264854Y957189D01*
X264823Y957130D01*
X264815Y957076D01*
X264803Y957039D01*
X264803Y957035D01*
X264803Y957034D01*
X264804Y956999D01*
X264796Y956945D01*
X264796Y953135D01*
X264807Y953070D01*
X264809Y953004D01*
X264827Y952961D01*
X264835Y952914D01*
X264869Y952857D01*
X264894Y952797D01*
X264925Y952762D01*
X264950Y952721D01*
X265001Y952680D01*
X265045Y952631D01*
X265087Y952609D01*
X265124Y952580D01*
X265186Y952559D01*
X265245Y952528D01*
X265299Y952520D01*
X265336Y952508D01*
X265376Y952509D01*
X265430Y952501D01*
X267970Y952501D01*
X268035Y952512D01*
G37*
G36*
X887795Y952512D02*
X887795Y952512D01*
X887861Y952514D01*
X887904Y952532D01*
X887951Y952540D01*
X888008Y952574D01*
X888068Y952599D01*
X888103Y952630D01*
X888144Y952655D01*
X888186Y952706D01*
X888234Y952750D01*
X888256Y952792D01*
X888285Y952829D01*
X888306Y952891D01*
X888337Y952950D01*
X888345Y953004D01*
X888357Y953041D01*
X888356Y953081D01*
X888364Y953135D01*
X888364Y956945D01*
X888353Y957010D01*
X888351Y957076D01*
X888333Y957119D01*
X888325Y957166D01*
X888291Y957223D01*
X888266Y957283D01*
X888235Y957318D01*
X888210Y957359D01*
X888159Y957401D01*
X888115Y957449D01*
X888073Y957471D01*
X888036Y957500D01*
X887974Y957521D01*
X887915Y957552D01*
X887861Y957560D01*
X887824Y957572D01*
X887784Y957571D01*
X887730Y957579D01*
X885190Y957579D01*
X885125Y957568D01*
X885059Y957566D01*
X885016Y957548D01*
X884969Y957540D01*
X884912Y957506D01*
X884852Y957481D01*
X884817Y957450D01*
X884776Y957425D01*
X884735Y957374D01*
X884686Y957330D01*
X884664Y957288D01*
X884635Y957251D01*
X884614Y957189D01*
X884583Y957130D01*
X884575Y957076D01*
X884563Y957039D01*
X884563Y957035D01*
X884563Y957034D01*
X884564Y956999D01*
X884556Y956945D01*
X884556Y953135D01*
X884567Y953070D01*
X884569Y953004D01*
X884587Y952961D01*
X884595Y952914D01*
X884629Y952857D01*
X884654Y952797D01*
X884685Y952762D01*
X884710Y952721D01*
X884761Y952680D01*
X884805Y952631D01*
X884847Y952609D01*
X884884Y952580D01*
X884946Y952559D01*
X885005Y952528D01*
X885059Y952520D01*
X885096Y952508D01*
X885136Y952509D01*
X885190Y952501D01*
X887730Y952501D01*
X887795Y952512D01*
G37*
G36*
X577915Y952512D02*
X577915Y952512D01*
X577981Y952514D01*
X578024Y952532D01*
X578071Y952540D01*
X578128Y952574D01*
X578188Y952599D01*
X578223Y952630D01*
X578264Y952655D01*
X578306Y952706D01*
X578354Y952750D01*
X578376Y952792D01*
X578405Y952829D01*
X578426Y952891D01*
X578457Y952950D01*
X578465Y953004D01*
X578477Y953041D01*
X578476Y953081D01*
X578484Y953135D01*
X578484Y956945D01*
X578473Y957010D01*
X578471Y957076D01*
X578453Y957119D01*
X578445Y957166D01*
X578411Y957223D01*
X578386Y957283D01*
X578355Y957318D01*
X578330Y957359D01*
X578279Y957401D01*
X578235Y957449D01*
X578193Y957471D01*
X578156Y957500D01*
X578094Y957521D01*
X578035Y957552D01*
X577981Y957560D01*
X577944Y957572D01*
X577904Y957571D01*
X577850Y957579D01*
X575310Y957579D01*
X575245Y957568D01*
X575179Y957566D01*
X575136Y957548D01*
X575089Y957540D01*
X575032Y957506D01*
X574972Y957481D01*
X574937Y957450D01*
X574896Y957425D01*
X574855Y957374D01*
X574806Y957330D01*
X574784Y957288D01*
X574755Y957251D01*
X574734Y957189D01*
X574703Y957130D01*
X574695Y957076D01*
X574683Y957039D01*
X574683Y957035D01*
X574683Y957034D01*
X574684Y956999D01*
X574676Y956945D01*
X574676Y953135D01*
X574687Y953070D01*
X574689Y953004D01*
X574707Y952961D01*
X574715Y952914D01*
X574749Y952857D01*
X574774Y952797D01*
X574805Y952762D01*
X574830Y952721D01*
X574881Y952680D01*
X574925Y952631D01*
X574967Y952609D01*
X575004Y952580D01*
X575066Y952559D01*
X575125Y952528D01*
X575179Y952520D01*
X575216Y952508D01*
X575256Y952509D01*
X575310Y952501D01*
X577850Y952501D01*
X577915Y952512D01*
G37*
G36*
X1197675Y952512D02*
X1197675Y952512D01*
X1197741Y952514D01*
X1197784Y952532D01*
X1197831Y952540D01*
X1197888Y952574D01*
X1197948Y952599D01*
X1197983Y952630D01*
X1198024Y952655D01*
X1198066Y952706D01*
X1198114Y952750D01*
X1198136Y952792D01*
X1198165Y952829D01*
X1198186Y952891D01*
X1198217Y952950D01*
X1198225Y953004D01*
X1198237Y953041D01*
X1198236Y953081D01*
X1198244Y953135D01*
X1198244Y956945D01*
X1198233Y957010D01*
X1198231Y957076D01*
X1198213Y957119D01*
X1198205Y957166D01*
X1198171Y957223D01*
X1198146Y957283D01*
X1198115Y957318D01*
X1198090Y957359D01*
X1198039Y957401D01*
X1197995Y957449D01*
X1197953Y957471D01*
X1197916Y957500D01*
X1197854Y957521D01*
X1197795Y957552D01*
X1197741Y957560D01*
X1197704Y957572D01*
X1197664Y957571D01*
X1197610Y957579D01*
X1195070Y957579D01*
X1195005Y957568D01*
X1194939Y957566D01*
X1194896Y957548D01*
X1194849Y957540D01*
X1194792Y957506D01*
X1194732Y957481D01*
X1194697Y957450D01*
X1194656Y957425D01*
X1194615Y957374D01*
X1194566Y957330D01*
X1194544Y957288D01*
X1194515Y957251D01*
X1194494Y957189D01*
X1194463Y957130D01*
X1194455Y957076D01*
X1194443Y957039D01*
X1194443Y957035D01*
X1194443Y957034D01*
X1194444Y956999D01*
X1194436Y956945D01*
X1194436Y953135D01*
X1194447Y953070D01*
X1194449Y953004D01*
X1194467Y952961D01*
X1194475Y952914D01*
X1194509Y952857D01*
X1194534Y952797D01*
X1194565Y952762D01*
X1194590Y952721D01*
X1194641Y952680D01*
X1194685Y952631D01*
X1194727Y952609D01*
X1194764Y952580D01*
X1194826Y952559D01*
X1194885Y952528D01*
X1194939Y952520D01*
X1194976Y952508D01*
X1195016Y952509D01*
X1195070Y952501D01*
X1197610Y952501D01*
X1197675Y952512D01*
G37*
G36*
X577915Y566432D02*
X577915Y566432D01*
X577981Y566434D01*
X578024Y566452D01*
X578071Y566460D01*
X578128Y566494D01*
X578188Y566519D01*
X578223Y566550D01*
X578264Y566575D01*
X578306Y566626D01*
X578354Y566670D01*
X578376Y566712D01*
X578405Y566749D01*
X578426Y566811D01*
X578457Y566870D01*
X578465Y566924D01*
X578477Y566961D01*
X578476Y567001D01*
X578484Y567055D01*
X578484Y570865D01*
X578473Y570930D01*
X578471Y570996D01*
X578453Y571039D01*
X578445Y571086D01*
X578411Y571143D01*
X578386Y571203D01*
X578355Y571238D01*
X578330Y571279D01*
X578279Y571321D01*
X578235Y571369D01*
X578193Y571391D01*
X578156Y571420D01*
X578094Y571441D01*
X578035Y571472D01*
X577981Y571480D01*
X577944Y571492D01*
X577904Y571491D01*
X577850Y571499D01*
X575310Y571499D01*
X575245Y571488D01*
X575179Y571486D01*
X575136Y571468D01*
X575089Y571460D01*
X575032Y571426D01*
X574972Y571401D01*
X574937Y571370D01*
X574896Y571345D01*
X574855Y571294D01*
X574806Y571250D01*
X574784Y571208D01*
X574755Y571171D01*
X574734Y571109D01*
X574703Y571050D01*
X574695Y570996D01*
X574683Y570959D01*
X574683Y570955D01*
X574683Y570954D01*
X574684Y570919D01*
X574676Y570865D01*
X574676Y567055D01*
X574687Y566990D01*
X574689Y566924D01*
X574707Y566881D01*
X574715Y566834D01*
X574749Y566777D01*
X574774Y566717D01*
X574805Y566682D01*
X574830Y566641D01*
X574881Y566600D01*
X574925Y566551D01*
X574967Y566529D01*
X575004Y566500D01*
X575066Y566479D01*
X575125Y566448D01*
X575179Y566440D01*
X575216Y566428D01*
X575256Y566429D01*
X575310Y566421D01*
X577850Y566421D01*
X577915Y566432D01*
G37*
G36*
X268035Y566432D02*
X268035Y566432D01*
X268101Y566434D01*
X268144Y566452D01*
X268191Y566460D01*
X268248Y566494D01*
X268308Y566519D01*
X268343Y566550D01*
X268384Y566575D01*
X268426Y566626D01*
X268474Y566670D01*
X268496Y566712D01*
X268525Y566749D01*
X268546Y566811D01*
X268577Y566870D01*
X268585Y566924D01*
X268597Y566961D01*
X268596Y567001D01*
X268604Y567055D01*
X268604Y570865D01*
X268593Y570930D01*
X268591Y570996D01*
X268573Y571039D01*
X268565Y571086D01*
X268531Y571143D01*
X268506Y571203D01*
X268475Y571238D01*
X268450Y571279D01*
X268399Y571321D01*
X268355Y571369D01*
X268313Y571391D01*
X268276Y571420D01*
X268214Y571441D01*
X268155Y571472D01*
X268101Y571480D01*
X268064Y571492D01*
X268024Y571491D01*
X267970Y571499D01*
X265430Y571499D01*
X265365Y571488D01*
X265299Y571486D01*
X265256Y571468D01*
X265209Y571460D01*
X265152Y571426D01*
X265092Y571401D01*
X265057Y571370D01*
X265016Y571345D01*
X264975Y571294D01*
X264926Y571250D01*
X264904Y571208D01*
X264875Y571171D01*
X264854Y571109D01*
X264823Y571050D01*
X264815Y570996D01*
X264803Y570959D01*
X264803Y570955D01*
X264803Y570954D01*
X264804Y570919D01*
X264796Y570865D01*
X264796Y567055D01*
X264807Y566990D01*
X264809Y566924D01*
X264827Y566881D01*
X264835Y566834D01*
X264869Y566777D01*
X264894Y566717D01*
X264925Y566682D01*
X264950Y566641D01*
X265001Y566600D01*
X265045Y566551D01*
X265087Y566529D01*
X265124Y566500D01*
X265186Y566479D01*
X265245Y566448D01*
X265299Y566440D01*
X265336Y566428D01*
X265376Y566429D01*
X265430Y566421D01*
X267970Y566421D01*
X268035Y566432D01*
G37*
G36*
X887795Y566432D02*
X887795Y566432D01*
X887861Y566434D01*
X887904Y566452D01*
X887951Y566460D01*
X888008Y566494D01*
X888068Y566519D01*
X888103Y566550D01*
X888144Y566575D01*
X888186Y566626D01*
X888234Y566670D01*
X888256Y566712D01*
X888285Y566749D01*
X888306Y566811D01*
X888337Y566870D01*
X888345Y566924D01*
X888357Y566961D01*
X888356Y567001D01*
X888364Y567055D01*
X888364Y570865D01*
X888353Y570930D01*
X888351Y570996D01*
X888333Y571039D01*
X888325Y571086D01*
X888291Y571143D01*
X888266Y571203D01*
X888235Y571238D01*
X888210Y571279D01*
X888159Y571321D01*
X888115Y571369D01*
X888073Y571391D01*
X888036Y571420D01*
X887974Y571441D01*
X887915Y571472D01*
X887861Y571480D01*
X887824Y571492D01*
X887784Y571491D01*
X887730Y571499D01*
X885190Y571499D01*
X885125Y571488D01*
X885059Y571486D01*
X885016Y571468D01*
X884969Y571460D01*
X884912Y571426D01*
X884852Y571401D01*
X884817Y571370D01*
X884776Y571345D01*
X884735Y571294D01*
X884686Y571250D01*
X884664Y571208D01*
X884635Y571171D01*
X884614Y571109D01*
X884583Y571050D01*
X884575Y570996D01*
X884563Y570959D01*
X884563Y570955D01*
X884563Y570954D01*
X884564Y570919D01*
X884556Y570865D01*
X884556Y567055D01*
X884567Y566990D01*
X884569Y566924D01*
X884587Y566881D01*
X884595Y566834D01*
X884629Y566777D01*
X884654Y566717D01*
X884685Y566682D01*
X884710Y566641D01*
X884761Y566600D01*
X884805Y566551D01*
X884847Y566529D01*
X884884Y566500D01*
X884946Y566479D01*
X885005Y566448D01*
X885059Y566440D01*
X885096Y566428D01*
X885136Y566429D01*
X885190Y566421D01*
X887730Y566421D01*
X887795Y566432D01*
G37*
G36*
X1197675Y566432D02*
X1197675Y566432D01*
X1197741Y566434D01*
X1197784Y566452D01*
X1197831Y566460D01*
X1197888Y566494D01*
X1197948Y566519D01*
X1197983Y566550D01*
X1198024Y566575D01*
X1198066Y566626D01*
X1198114Y566670D01*
X1198136Y566712D01*
X1198165Y566749D01*
X1198186Y566811D01*
X1198217Y566870D01*
X1198225Y566924D01*
X1198237Y566961D01*
X1198236Y567001D01*
X1198244Y567055D01*
X1198244Y570865D01*
X1198233Y570930D01*
X1198231Y570996D01*
X1198213Y571039D01*
X1198205Y571086D01*
X1198171Y571143D01*
X1198146Y571203D01*
X1198115Y571238D01*
X1198090Y571279D01*
X1198039Y571321D01*
X1197995Y571369D01*
X1197953Y571391D01*
X1197916Y571420D01*
X1197854Y571441D01*
X1197795Y571472D01*
X1197741Y571480D01*
X1197704Y571492D01*
X1197664Y571491D01*
X1197610Y571499D01*
X1195070Y571499D01*
X1195005Y571488D01*
X1194939Y571486D01*
X1194896Y571468D01*
X1194849Y571460D01*
X1194792Y571426D01*
X1194732Y571401D01*
X1194697Y571370D01*
X1194656Y571345D01*
X1194615Y571294D01*
X1194566Y571250D01*
X1194544Y571208D01*
X1194515Y571171D01*
X1194494Y571109D01*
X1194463Y571050D01*
X1194455Y570996D01*
X1194443Y570959D01*
X1194443Y570955D01*
X1194443Y570954D01*
X1194444Y570919D01*
X1194436Y570865D01*
X1194436Y567055D01*
X1194447Y566990D01*
X1194449Y566924D01*
X1194467Y566881D01*
X1194475Y566834D01*
X1194509Y566777D01*
X1194534Y566717D01*
X1194565Y566682D01*
X1194590Y566641D01*
X1194641Y566600D01*
X1194685Y566551D01*
X1194727Y566529D01*
X1194764Y566500D01*
X1194826Y566479D01*
X1194885Y566448D01*
X1194939Y566440D01*
X1194976Y566428D01*
X1195016Y566429D01*
X1195070Y566421D01*
X1197610Y566421D01*
X1197675Y566432D01*
G37*
G36*
X577915Y180352D02*
X577915Y180352D01*
X577981Y180354D01*
X578024Y180372D01*
X578071Y180380D01*
X578128Y180414D01*
X578188Y180439D01*
X578223Y180470D01*
X578264Y180495D01*
X578306Y180546D01*
X578354Y180590D01*
X578376Y180632D01*
X578405Y180669D01*
X578426Y180731D01*
X578457Y180790D01*
X578465Y180844D01*
X578477Y180881D01*
X578476Y180921D01*
X578484Y180975D01*
X578484Y184785D01*
X578473Y184850D01*
X578471Y184916D01*
X578453Y184959D01*
X578445Y185006D01*
X578411Y185063D01*
X578386Y185123D01*
X578355Y185158D01*
X578330Y185199D01*
X578279Y185241D01*
X578235Y185289D01*
X578193Y185311D01*
X578156Y185340D01*
X578094Y185361D01*
X578035Y185392D01*
X577981Y185400D01*
X577944Y185412D01*
X577904Y185411D01*
X577850Y185419D01*
X575310Y185419D01*
X575245Y185408D01*
X575179Y185406D01*
X575136Y185388D01*
X575089Y185380D01*
X575032Y185346D01*
X574972Y185321D01*
X574937Y185290D01*
X574896Y185265D01*
X574855Y185214D01*
X574806Y185170D01*
X574784Y185128D01*
X574755Y185091D01*
X574734Y185029D01*
X574703Y184970D01*
X574695Y184916D01*
X574683Y184879D01*
X574683Y184875D01*
X574683Y184874D01*
X574684Y184839D01*
X574676Y184785D01*
X574676Y180975D01*
X574687Y180910D01*
X574689Y180844D01*
X574707Y180801D01*
X574715Y180754D01*
X574749Y180697D01*
X574774Y180637D01*
X574805Y180602D01*
X574830Y180561D01*
X574881Y180520D01*
X574925Y180471D01*
X574967Y180449D01*
X575004Y180420D01*
X575066Y180399D01*
X575125Y180368D01*
X575179Y180360D01*
X575216Y180348D01*
X575256Y180349D01*
X575310Y180341D01*
X577850Y180341D01*
X577915Y180352D01*
G37*
G36*
X887795Y180352D02*
X887795Y180352D01*
X887861Y180354D01*
X887904Y180372D01*
X887951Y180380D01*
X888008Y180414D01*
X888068Y180439D01*
X888103Y180470D01*
X888144Y180495D01*
X888186Y180546D01*
X888234Y180590D01*
X888256Y180632D01*
X888285Y180669D01*
X888306Y180731D01*
X888337Y180790D01*
X888345Y180844D01*
X888357Y180881D01*
X888356Y180921D01*
X888364Y180975D01*
X888364Y184785D01*
X888353Y184850D01*
X888351Y184916D01*
X888333Y184959D01*
X888325Y185006D01*
X888291Y185063D01*
X888266Y185123D01*
X888235Y185158D01*
X888210Y185199D01*
X888159Y185241D01*
X888115Y185289D01*
X888073Y185311D01*
X888036Y185340D01*
X887974Y185361D01*
X887915Y185392D01*
X887861Y185400D01*
X887824Y185412D01*
X887784Y185411D01*
X887730Y185419D01*
X885190Y185419D01*
X885125Y185408D01*
X885059Y185406D01*
X885016Y185388D01*
X884969Y185380D01*
X884912Y185346D01*
X884852Y185321D01*
X884817Y185290D01*
X884776Y185265D01*
X884735Y185214D01*
X884686Y185170D01*
X884664Y185128D01*
X884635Y185091D01*
X884614Y185029D01*
X884583Y184970D01*
X884575Y184916D01*
X884563Y184879D01*
X884563Y184875D01*
X884563Y184874D01*
X884564Y184839D01*
X884556Y184785D01*
X884556Y180975D01*
X884567Y180910D01*
X884569Y180844D01*
X884587Y180801D01*
X884595Y180754D01*
X884629Y180697D01*
X884654Y180637D01*
X884685Y180602D01*
X884710Y180561D01*
X884761Y180520D01*
X884805Y180471D01*
X884847Y180449D01*
X884884Y180420D01*
X884946Y180399D01*
X885005Y180368D01*
X885059Y180360D01*
X885096Y180348D01*
X885136Y180349D01*
X885190Y180341D01*
X887730Y180341D01*
X887795Y180352D01*
G37*
G36*
X268035Y180352D02*
X268035Y180352D01*
X268101Y180354D01*
X268144Y180372D01*
X268191Y180380D01*
X268248Y180414D01*
X268308Y180439D01*
X268343Y180470D01*
X268384Y180495D01*
X268426Y180546D01*
X268474Y180590D01*
X268496Y180632D01*
X268525Y180669D01*
X268546Y180731D01*
X268577Y180790D01*
X268585Y180844D01*
X268597Y180881D01*
X268596Y180921D01*
X268604Y180975D01*
X268604Y184785D01*
X268593Y184850D01*
X268591Y184916D01*
X268573Y184959D01*
X268565Y185006D01*
X268531Y185063D01*
X268506Y185123D01*
X268475Y185158D01*
X268450Y185199D01*
X268399Y185241D01*
X268355Y185289D01*
X268313Y185311D01*
X268276Y185340D01*
X268214Y185361D01*
X268155Y185392D01*
X268101Y185400D01*
X268064Y185412D01*
X268024Y185411D01*
X267970Y185419D01*
X265430Y185419D01*
X265365Y185408D01*
X265299Y185406D01*
X265256Y185388D01*
X265209Y185380D01*
X265152Y185346D01*
X265092Y185321D01*
X265057Y185290D01*
X265016Y185265D01*
X264975Y185214D01*
X264926Y185170D01*
X264904Y185128D01*
X264875Y185091D01*
X264854Y185029D01*
X264823Y184970D01*
X264815Y184916D01*
X264803Y184879D01*
X264803Y184875D01*
X264803Y184874D01*
X264804Y184839D01*
X264796Y184785D01*
X264796Y180975D01*
X264807Y180910D01*
X264809Y180844D01*
X264827Y180801D01*
X264835Y180754D01*
X264869Y180697D01*
X264894Y180637D01*
X264925Y180602D01*
X264950Y180561D01*
X265001Y180520D01*
X265045Y180471D01*
X265087Y180449D01*
X265124Y180420D01*
X265186Y180399D01*
X265245Y180368D01*
X265299Y180360D01*
X265336Y180348D01*
X265376Y180349D01*
X265430Y180341D01*
X267970Y180341D01*
X268035Y180352D01*
G37*
G36*
X1197675Y180352D02*
X1197675Y180352D01*
X1197741Y180354D01*
X1197784Y180372D01*
X1197831Y180380D01*
X1197888Y180414D01*
X1197948Y180439D01*
X1197983Y180470D01*
X1198024Y180495D01*
X1198066Y180546D01*
X1198114Y180590D01*
X1198136Y180632D01*
X1198165Y180669D01*
X1198186Y180731D01*
X1198217Y180790D01*
X1198225Y180844D01*
X1198237Y180881D01*
X1198236Y180921D01*
X1198244Y180975D01*
X1198244Y184785D01*
X1198233Y184850D01*
X1198231Y184916D01*
X1198213Y184959D01*
X1198205Y185006D01*
X1198171Y185063D01*
X1198146Y185123D01*
X1198115Y185158D01*
X1198090Y185199D01*
X1198039Y185241D01*
X1197995Y185289D01*
X1197953Y185311D01*
X1197916Y185340D01*
X1197854Y185361D01*
X1197795Y185392D01*
X1197741Y185400D01*
X1197704Y185412D01*
X1197664Y185411D01*
X1197610Y185419D01*
X1195070Y185419D01*
X1195005Y185408D01*
X1194939Y185406D01*
X1194896Y185388D01*
X1194849Y185380D01*
X1194792Y185346D01*
X1194732Y185321D01*
X1194697Y185290D01*
X1194656Y185265D01*
X1194615Y185214D01*
X1194566Y185170D01*
X1194544Y185128D01*
X1194515Y185091D01*
X1194494Y185029D01*
X1194463Y184970D01*
X1194455Y184916D01*
X1194443Y184879D01*
X1194443Y184875D01*
X1194443Y184874D01*
X1194444Y184839D01*
X1194436Y184785D01*
X1194436Y180975D01*
X1194447Y180910D01*
X1194449Y180844D01*
X1194467Y180801D01*
X1194475Y180754D01*
X1194509Y180697D01*
X1194534Y180637D01*
X1194565Y180602D01*
X1194590Y180561D01*
X1194641Y180520D01*
X1194685Y180471D01*
X1194727Y180449D01*
X1194764Y180420D01*
X1194826Y180399D01*
X1194885Y180368D01*
X1194939Y180360D01*
X1194976Y180348D01*
X1195016Y180349D01*
X1195070Y180341D01*
X1197610Y180341D01*
X1197675Y180352D01*
G37*
G36*
X512510Y904887D02*
X512510Y904887D01*
X512576Y904889D01*
X512619Y904907D01*
X512666Y904915D01*
X512723Y904949D01*
X512783Y904974D01*
X512818Y905005D01*
X512859Y905030D01*
X512901Y905081D01*
X512949Y905125D01*
X512971Y905167D01*
X513000Y905204D01*
X513021Y905266D01*
X513052Y905325D01*
X513060Y905379D01*
X513072Y905416D01*
X513071Y905456D01*
X513079Y905510D01*
X513079Y908050D01*
X513068Y908115D01*
X513066Y908181D01*
X513048Y908224D01*
X513040Y908271D01*
X513006Y908328D01*
X512981Y908388D01*
X512950Y908423D01*
X512925Y908464D01*
X512874Y908506D01*
X512830Y908554D01*
X512788Y908576D01*
X512751Y908605D01*
X512689Y908626D01*
X512630Y908657D01*
X512576Y908665D01*
X512539Y908677D01*
X512499Y908676D01*
X512445Y908684D01*
X508635Y908684D01*
X508570Y908673D01*
X508504Y908671D01*
X508461Y908653D01*
X508414Y908645D01*
X508357Y908611D01*
X508297Y908586D01*
X508262Y908555D01*
X508221Y908530D01*
X508180Y908479D01*
X508131Y908435D01*
X508109Y908393D01*
X508080Y908356D01*
X508059Y908294D01*
X508028Y908235D01*
X508020Y908181D01*
X508008Y908144D01*
X508008Y908141D01*
X508009Y908104D01*
X508001Y908050D01*
X508001Y905510D01*
X508012Y905445D01*
X508014Y905379D01*
X508032Y905336D01*
X508040Y905289D01*
X508074Y905232D01*
X508099Y905172D01*
X508130Y905137D01*
X508155Y905096D01*
X508206Y905055D01*
X508250Y905006D01*
X508292Y904984D01*
X508329Y904955D01*
X508391Y904934D01*
X508450Y904903D01*
X508504Y904895D01*
X508541Y904883D01*
X508581Y904884D01*
X508635Y904876D01*
X512445Y904876D01*
X512510Y904887D01*
G37*
G36*
X1132270Y904887D02*
X1132270Y904887D01*
X1132336Y904889D01*
X1132379Y904907D01*
X1132426Y904915D01*
X1132483Y904949D01*
X1132543Y904974D01*
X1132578Y905005D01*
X1132619Y905030D01*
X1132661Y905081D01*
X1132709Y905125D01*
X1132731Y905167D01*
X1132760Y905204D01*
X1132781Y905266D01*
X1132812Y905325D01*
X1132820Y905379D01*
X1132832Y905416D01*
X1132831Y905456D01*
X1132839Y905510D01*
X1132839Y908050D01*
X1132828Y908115D01*
X1132826Y908181D01*
X1132808Y908224D01*
X1132800Y908271D01*
X1132766Y908328D01*
X1132741Y908388D01*
X1132710Y908423D01*
X1132685Y908464D01*
X1132634Y908506D01*
X1132590Y908554D01*
X1132548Y908576D01*
X1132511Y908605D01*
X1132449Y908626D01*
X1132390Y908657D01*
X1132336Y908665D01*
X1132299Y908677D01*
X1132259Y908676D01*
X1132205Y908684D01*
X1128395Y908684D01*
X1128330Y908673D01*
X1128264Y908671D01*
X1128221Y908653D01*
X1128174Y908645D01*
X1128117Y908611D01*
X1128057Y908586D01*
X1128022Y908555D01*
X1127981Y908530D01*
X1127940Y908479D01*
X1127891Y908435D01*
X1127869Y908393D01*
X1127840Y908356D01*
X1127819Y908294D01*
X1127788Y908235D01*
X1127780Y908181D01*
X1127768Y908144D01*
X1127768Y908141D01*
X1127769Y908104D01*
X1127761Y908050D01*
X1127761Y905510D01*
X1127772Y905445D01*
X1127774Y905379D01*
X1127792Y905336D01*
X1127800Y905289D01*
X1127834Y905232D01*
X1127859Y905172D01*
X1127890Y905137D01*
X1127915Y905096D01*
X1127966Y905055D01*
X1128010Y905006D01*
X1128052Y904984D01*
X1128089Y904955D01*
X1128151Y904934D01*
X1128210Y904903D01*
X1128264Y904895D01*
X1128301Y904883D01*
X1128341Y904884D01*
X1128395Y904876D01*
X1132205Y904876D01*
X1132270Y904887D01*
G37*
G36*
X202630Y904887D02*
X202630Y904887D01*
X202696Y904889D01*
X202739Y904907D01*
X202786Y904915D01*
X202843Y904949D01*
X202903Y904974D01*
X202938Y905005D01*
X202979Y905030D01*
X203021Y905081D01*
X203069Y905125D01*
X203091Y905167D01*
X203120Y905204D01*
X203141Y905266D01*
X203172Y905325D01*
X203180Y905379D01*
X203192Y905416D01*
X203191Y905456D01*
X203199Y905510D01*
X203199Y908050D01*
X203188Y908115D01*
X203186Y908181D01*
X203168Y908224D01*
X203160Y908271D01*
X203126Y908328D01*
X203101Y908388D01*
X203070Y908423D01*
X203045Y908464D01*
X202994Y908506D01*
X202950Y908554D01*
X202908Y908576D01*
X202871Y908605D01*
X202809Y908626D01*
X202750Y908657D01*
X202696Y908665D01*
X202659Y908677D01*
X202619Y908676D01*
X202565Y908684D01*
X198755Y908684D01*
X198690Y908673D01*
X198624Y908671D01*
X198581Y908653D01*
X198534Y908645D01*
X198477Y908611D01*
X198417Y908586D01*
X198382Y908555D01*
X198341Y908530D01*
X198300Y908479D01*
X198251Y908435D01*
X198229Y908393D01*
X198200Y908356D01*
X198179Y908294D01*
X198148Y908235D01*
X198140Y908181D01*
X198128Y908144D01*
X198128Y908141D01*
X198129Y908104D01*
X198121Y908050D01*
X198121Y905510D01*
X198132Y905445D01*
X198134Y905379D01*
X198152Y905336D01*
X198160Y905289D01*
X198194Y905232D01*
X198219Y905172D01*
X198250Y905137D01*
X198275Y905096D01*
X198326Y905055D01*
X198370Y905006D01*
X198412Y904984D01*
X198449Y904955D01*
X198511Y904934D01*
X198570Y904903D01*
X198624Y904895D01*
X198661Y904883D01*
X198701Y904884D01*
X198755Y904876D01*
X202565Y904876D01*
X202630Y904887D01*
G37*
G36*
X822390Y904887D02*
X822390Y904887D01*
X822456Y904889D01*
X822499Y904907D01*
X822546Y904915D01*
X822603Y904949D01*
X822663Y904974D01*
X822698Y905005D01*
X822739Y905030D01*
X822781Y905081D01*
X822829Y905125D01*
X822851Y905167D01*
X822880Y905204D01*
X822901Y905266D01*
X822932Y905325D01*
X822940Y905379D01*
X822952Y905416D01*
X822951Y905456D01*
X822959Y905510D01*
X822959Y908050D01*
X822948Y908115D01*
X822946Y908181D01*
X822928Y908224D01*
X822920Y908271D01*
X822886Y908328D01*
X822861Y908388D01*
X822830Y908423D01*
X822805Y908464D01*
X822754Y908506D01*
X822710Y908554D01*
X822668Y908576D01*
X822631Y908605D01*
X822569Y908626D01*
X822510Y908657D01*
X822456Y908665D01*
X822419Y908677D01*
X822379Y908676D01*
X822325Y908684D01*
X818515Y908684D01*
X818450Y908673D01*
X818384Y908671D01*
X818341Y908653D01*
X818294Y908645D01*
X818237Y908611D01*
X818177Y908586D01*
X818142Y908555D01*
X818101Y908530D01*
X818060Y908479D01*
X818011Y908435D01*
X817989Y908393D01*
X817960Y908356D01*
X817939Y908294D01*
X817908Y908235D01*
X817900Y908181D01*
X817888Y908144D01*
X817888Y908141D01*
X817889Y908104D01*
X817881Y908050D01*
X817881Y905510D01*
X817892Y905445D01*
X817894Y905379D01*
X817912Y905336D01*
X817920Y905289D01*
X817954Y905232D01*
X817979Y905172D01*
X818010Y905137D01*
X818035Y905096D01*
X818086Y905055D01*
X818130Y905006D01*
X818172Y904984D01*
X818209Y904955D01*
X818271Y904934D01*
X818330Y904903D01*
X818384Y904895D01*
X818421Y904883D01*
X818461Y904884D01*
X818515Y904876D01*
X822325Y904876D01*
X822390Y904887D01*
G37*
G36*
X454090Y846467D02*
X454090Y846467D01*
X454156Y846469D01*
X454199Y846487D01*
X454246Y846495D01*
X454303Y846529D01*
X454363Y846554D01*
X454398Y846585D01*
X454439Y846610D01*
X454481Y846661D01*
X454529Y846705D01*
X454551Y846747D01*
X454580Y846784D01*
X454601Y846846D01*
X454632Y846905D01*
X454640Y846959D01*
X454652Y846996D01*
X454651Y847036D01*
X454659Y847090D01*
X454659Y849630D01*
X454648Y849695D01*
X454646Y849761D01*
X454628Y849804D01*
X454620Y849851D01*
X454586Y849908D01*
X454561Y849968D01*
X454530Y850003D01*
X454505Y850044D01*
X454454Y850086D01*
X454410Y850134D01*
X454368Y850156D01*
X454331Y850185D01*
X454269Y850206D01*
X454210Y850237D01*
X454156Y850245D01*
X454119Y850257D01*
X454079Y850256D01*
X454025Y850264D01*
X450215Y850264D01*
X450150Y850253D01*
X450084Y850251D01*
X450041Y850233D01*
X449994Y850225D01*
X449937Y850191D01*
X449877Y850166D01*
X449842Y850135D01*
X449801Y850110D01*
X449760Y850059D01*
X449711Y850015D01*
X449689Y849973D01*
X449660Y849936D01*
X449639Y849874D01*
X449608Y849815D01*
X449600Y849761D01*
X449588Y849724D01*
X449588Y849721D01*
X449589Y849684D01*
X449581Y849630D01*
X449581Y847090D01*
X449592Y847025D01*
X449594Y846959D01*
X449612Y846916D01*
X449620Y846869D01*
X449654Y846812D01*
X449679Y846752D01*
X449710Y846717D01*
X449735Y846676D01*
X449786Y846635D01*
X449830Y846586D01*
X449872Y846564D01*
X449909Y846535D01*
X449971Y846514D01*
X450030Y846483D01*
X450084Y846475D01*
X450121Y846463D01*
X450161Y846464D01*
X450215Y846456D01*
X454025Y846456D01*
X454090Y846467D01*
G37*
G36*
X134050Y846467D02*
X134050Y846467D01*
X134116Y846469D01*
X134159Y846487D01*
X134206Y846495D01*
X134263Y846529D01*
X134323Y846554D01*
X134358Y846585D01*
X134399Y846610D01*
X134441Y846661D01*
X134489Y846705D01*
X134511Y846747D01*
X134540Y846784D01*
X134561Y846846D01*
X134592Y846905D01*
X134600Y846959D01*
X134612Y846996D01*
X134611Y847036D01*
X134619Y847090D01*
X134619Y849630D01*
X134608Y849695D01*
X134606Y849761D01*
X134588Y849804D01*
X134580Y849851D01*
X134546Y849908D01*
X134521Y849968D01*
X134490Y850003D01*
X134465Y850044D01*
X134414Y850086D01*
X134370Y850134D01*
X134328Y850156D01*
X134291Y850185D01*
X134229Y850206D01*
X134170Y850237D01*
X134116Y850245D01*
X134079Y850257D01*
X134039Y850256D01*
X133985Y850264D01*
X130175Y850264D01*
X130110Y850253D01*
X130044Y850251D01*
X130001Y850233D01*
X129954Y850225D01*
X129897Y850191D01*
X129837Y850166D01*
X129802Y850135D01*
X129761Y850110D01*
X129720Y850059D01*
X129671Y850015D01*
X129649Y849973D01*
X129620Y849936D01*
X129599Y849874D01*
X129568Y849815D01*
X129560Y849761D01*
X129548Y849724D01*
X129548Y849721D01*
X129549Y849684D01*
X129541Y849630D01*
X129541Y847090D01*
X129552Y847025D01*
X129554Y846959D01*
X129572Y846916D01*
X129580Y846869D01*
X129614Y846812D01*
X129639Y846752D01*
X129670Y846717D01*
X129695Y846676D01*
X129746Y846635D01*
X129790Y846586D01*
X129832Y846564D01*
X129869Y846535D01*
X129931Y846514D01*
X129990Y846483D01*
X130044Y846475D01*
X130081Y846463D01*
X130121Y846464D01*
X130175Y846456D01*
X133985Y846456D01*
X134050Y846467D01*
G37*
G36*
X1073850Y846467D02*
X1073850Y846467D01*
X1073916Y846469D01*
X1073959Y846487D01*
X1074006Y846495D01*
X1074063Y846529D01*
X1074123Y846554D01*
X1074158Y846585D01*
X1074199Y846610D01*
X1074241Y846661D01*
X1074289Y846705D01*
X1074311Y846747D01*
X1074340Y846784D01*
X1074361Y846846D01*
X1074392Y846905D01*
X1074400Y846959D01*
X1074412Y846996D01*
X1074411Y847036D01*
X1074419Y847090D01*
X1074419Y849630D01*
X1074408Y849695D01*
X1074406Y849761D01*
X1074388Y849804D01*
X1074380Y849851D01*
X1074346Y849908D01*
X1074321Y849968D01*
X1074290Y850003D01*
X1074265Y850044D01*
X1074214Y850086D01*
X1074170Y850134D01*
X1074128Y850156D01*
X1074091Y850185D01*
X1074029Y850206D01*
X1073970Y850237D01*
X1073916Y850245D01*
X1073879Y850257D01*
X1073839Y850256D01*
X1073785Y850264D01*
X1069975Y850264D01*
X1069910Y850253D01*
X1069844Y850251D01*
X1069801Y850233D01*
X1069754Y850225D01*
X1069697Y850191D01*
X1069637Y850166D01*
X1069602Y850135D01*
X1069561Y850110D01*
X1069520Y850059D01*
X1069471Y850015D01*
X1069449Y849973D01*
X1069420Y849936D01*
X1069399Y849874D01*
X1069368Y849815D01*
X1069360Y849761D01*
X1069348Y849724D01*
X1069348Y849721D01*
X1069349Y849684D01*
X1069341Y849630D01*
X1069341Y847090D01*
X1069352Y847025D01*
X1069354Y846959D01*
X1069372Y846916D01*
X1069380Y846869D01*
X1069414Y846812D01*
X1069439Y846752D01*
X1069470Y846717D01*
X1069495Y846676D01*
X1069546Y846635D01*
X1069590Y846586D01*
X1069632Y846564D01*
X1069669Y846535D01*
X1069731Y846514D01*
X1069790Y846483D01*
X1069844Y846475D01*
X1069881Y846463D01*
X1069921Y846464D01*
X1069975Y846456D01*
X1073785Y846456D01*
X1073850Y846467D01*
G37*
G36*
X763970Y846467D02*
X763970Y846467D01*
X764036Y846469D01*
X764079Y846487D01*
X764126Y846495D01*
X764183Y846529D01*
X764243Y846554D01*
X764278Y846585D01*
X764319Y846610D01*
X764361Y846661D01*
X764409Y846705D01*
X764431Y846747D01*
X764460Y846784D01*
X764481Y846846D01*
X764512Y846905D01*
X764520Y846959D01*
X764532Y846996D01*
X764531Y847036D01*
X764539Y847090D01*
X764539Y849630D01*
X764528Y849695D01*
X764526Y849761D01*
X764508Y849804D01*
X764500Y849851D01*
X764466Y849908D01*
X764441Y849968D01*
X764410Y850003D01*
X764385Y850044D01*
X764334Y850086D01*
X764290Y850134D01*
X764248Y850156D01*
X764211Y850185D01*
X764149Y850206D01*
X764090Y850237D01*
X764036Y850245D01*
X763999Y850257D01*
X763959Y850256D01*
X763905Y850264D01*
X760095Y850264D01*
X760030Y850253D01*
X759964Y850251D01*
X759921Y850233D01*
X759874Y850225D01*
X759817Y850191D01*
X759757Y850166D01*
X759722Y850135D01*
X759681Y850110D01*
X759640Y850059D01*
X759591Y850015D01*
X759569Y849973D01*
X759540Y849936D01*
X759519Y849874D01*
X759488Y849815D01*
X759480Y849761D01*
X759468Y849724D01*
X759468Y849721D01*
X759469Y849684D01*
X759461Y849630D01*
X759461Y847090D01*
X759472Y847025D01*
X759474Y846959D01*
X759492Y846916D01*
X759500Y846869D01*
X759534Y846812D01*
X759559Y846752D01*
X759590Y846717D01*
X759615Y846676D01*
X759666Y846635D01*
X759710Y846586D01*
X759752Y846564D01*
X759789Y846535D01*
X759851Y846514D01*
X759910Y846483D01*
X759964Y846475D01*
X760001Y846463D01*
X760041Y846464D01*
X760095Y846456D01*
X763905Y846456D01*
X763970Y846467D01*
G37*
G36*
X202630Y518807D02*
X202630Y518807D01*
X202696Y518809D01*
X202739Y518827D01*
X202786Y518835D01*
X202843Y518869D01*
X202903Y518894D01*
X202938Y518925D01*
X202979Y518950D01*
X203021Y519001D01*
X203069Y519045D01*
X203091Y519087D01*
X203120Y519124D01*
X203141Y519186D01*
X203172Y519245D01*
X203180Y519299D01*
X203192Y519336D01*
X203191Y519376D01*
X203199Y519430D01*
X203199Y521970D01*
X203188Y522035D01*
X203186Y522101D01*
X203168Y522144D01*
X203160Y522191D01*
X203126Y522248D01*
X203101Y522308D01*
X203070Y522343D01*
X203045Y522384D01*
X202994Y522426D01*
X202950Y522474D01*
X202908Y522496D01*
X202871Y522525D01*
X202809Y522546D01*
X202750Y522577D01*
X202696Y522585D01*
X202659Y522597D01*
X202619Y522596D01*
X202565Y522604D01*
X198755Y522604D01*
X198690Y522593D01*
X198624Y522591D01*
X198581Y522573D01*
X198534Y522565D01*
X198477Y522531D01*
X198417Y522506D01*
X198382Y522475D01*
X198341Y522450D01*
X198300Y522399D01*
X198251Y522355D01*
X198229Y522313D01*
X198200Y522276D01*
X198179Y522214D01*
X198148Y522155D01*
X198140Y522101D01*
X198128Y522064D01*
X198128Y522061D01*
X198129Y522024D01*
X198121Y521970D01*
X198121Y519430D01*
X198132Y519365D01*
X198134Y519299D01*
X198152Y519256D01*
X198160Y519209D01*
X198194Y519152D01*
X198219Y519092D01*
X198250Y519057D01*
X198275Y519016D01*
X198326Y518975D01*
X198370Y518926D01*
X198412Y518904D01*
X198449Y518875D01*
X198511Y518854D01*
X198570Y518823D01*
X198624Y518815D01*
X198661Y518803D01*
X198701Y518804D01*
X198755Y518796D01*
X202565Y518796D01*
X202630Y518807D01*
G37*
G36*
X822390Y518807D02*
X822390Y518807D01*
X822456Y518809D01*
X822499Y518827D01*
X822546Y518835D01*
X822603Y518869D01*
X822663Y518894D01*
X822698Y518925D01*
X822739Y518950D01*
X822781Y519001D01*
X822829Y519045D01*
X822851Y519087D01*
X822880Y519124D01*
X822901Y519186D01*
X822932Y519245D01*
X822940Y519299D01*
X822952Y519336D01*
X822951Y519376D01*
X822959Y519430D01*
X822959Y521970D01*
X822948Y522035D01*
X822946Y522101D01*
X822928Y522144D01*
X822920Y522191D01*
X822886Y522248D01*
X822861Y522308D01*
X822830Y522343D01*
X822805Y522384D01*
X822754Y522426D01*
X822710Y522474D01*
X822668Y522496D01*
X822631Y522525D01*
X822569Y522546D01*
X822510Y522577D01*
X822456Y522585D01*
X822419Y522597D01*
X822379Y522596D01*
X822325Y522604D01*
X818515Y522604D01*
X818450Y522593D01*
X818384Y522591D01*
X818341Y522573D01*
X818294Y522565D01*
X818237Y522531D01*
X818177Y522506D01*
X818142Y522475D01*
X818101Y522450D01*
X818060Y522399D01*
X818011Y522355D01*
X817989Y522313D01*
X817960Y522276D01*
X817939Y522214D01*
X817908Y522155D01*
X817900Y522101D01*
X817888Y522064D01*
X817888Y522061D01*
X817889Y522024D01*
X817881Y521970D01*
X817881Y519430D01*
X817892Y519365D01*
X817894Y519299D01*
X817912Y519256D01*
X817920Y519209D01*
X817954Y519152D01*
X817979Y519092D01*
X818010Y519057D01*
X818035Y519016D01*
X818086Y518975D01*
X818130Y518926D01*
X818172Y518904D01*
X818209Y518875D01*
X818271Y518854D01*
X818330Y518823D01*
X818384Y518815D01*
X818421Y518803D01*
X818461Y518804D01*
X818515Y518796D01*
X822325Y518796D01*
X822390Y518807D01*
G37*
G36*
X1132270Y518807D02*
X1132270Y518807D01*
X1132336Y518809D01*
X1132379Y518827D01*
X1132426Y518835D01*
X1132483Y518869D01*
X1132543Y518894D01*
X1132578Y518925D01*
X1132619Y518950D01*
X1132661Y519001D01*
X1132709Y519045D01*
X1132731Y519087D01*
X1132760Y519124D01*
X1132781Y519186D01*
X1132812Y519245D01*
X1132820Y519299D01*
X1132832Y519336D01*
X1132831Y519376D01*
X1132839Y519430D01*
X1132839Y521970D01*
X1132828Y522035D01*
X1132826Y522101D01*
X1132808Y522144D01*
X1132800Y522191D01*
X1132766Y522248D01*
X1132741Y522308D01*
X1132710Y522343D01*
X1132685Y522384D01*
X1132634Y522426D01*
X1132590Y522474D01*
X1132548Y522496D01*
X1132511Y522525D01*
X1132449Y522546D01*
X1132390Y522577D01*
X1132336Y522585D01*
X1132299Y522597D01*
X1132259Y522596D01*
X1132205Y522604D01*
X1128395Y522604D01*
X1128330Y522593D01*
X1128264Y522591D01*
X1128221Y522573D01*
X1128174Y522565D01*
X1128117Y522531D01*
X1128057Y522506D01*
X1128022Y522475D01*
X1127981Y522450D01*
X1127940Y522399D01*
X1127891Y522355D01*
X1127869Y522313D01*
X1127840Y522276D01*
X1127819Y522214D01*
X1127788Y522155D01*
X1127780Y522101D01*
X1127768Y522064D01*
X1127768Y522061D01*
X1127769Y522024D01*
X1127761Y521970D01*
X1127761Y519430D01*
X1127772Y519365D01*
X1127774Y519299D01*
X1127792Y519256D01*
X1127800Y519209D01*
X1127834Y519152D01*
X1127859Y519092D01*
X1127890Y519057D01*
X1127915Y519016D01*
X1127966Y518975D01*
X1128010Y518926D01*
X1128052Y518904D01*
X1128089Y518875D01*
X1128151Y518854D01*
X1128210Y518823D01*
X1128264Y518815D01*
X1128301Y518803D01*
X1128341Y518804D01*
X1128395Y518796D01*
X1132205Y518796D01*
X1132270Y518807D01*
G37*
G36*
X512510Y518807D02*
X512510Y518807D01*
X512576Y518809D01*
X512619Y518827D01*
X512666Y518835D01*
X512723Y518869D01*
X512783Y518894D01*
X512818Y518925D01*
X512859Y518950D01*
X512901Y519001D01*
X512949Y519045D01*
X512971Y519087D01*
X513000Y519124D01*
X513021Y519186D01*
X513052Y519245D01*
X513060Y519299D01*
X513072Y519336D01*
X513071Y519376D01*
X513079Y519430D01*
X513079Y521970D01*
X513068Y522035D01*
X513066Y522101D01*
X513048Y522144D01*
X513040Y522191D01*
X513006Y522248D01*
X512981Y522308D01*
X512950Y522343D01*
X512925Y522384D01*
X512874Y522426D01*
X512830Y522474D01*
X512788Y522496D01*
X512751Y522525D01*
X512689Y522546D01*
X512630Y522577D01*
X512576Y522585D01*
X512539Y522597D01*
X512499Y522596D01*
X512445Y522604D01*
X508635Y522604D01*
X508570Y522593D01*
X508504Y522591D01*
X508461Y522573D01*
X508414Y522565D01*
X508357Y522531D01*
X508297Y522506D01*
X508262Y522475D01*
X508221Y522450D01*
X508180Y522399D01*
X508131Y522355D01*
X508109Y522313D01*
X508080Y522276D01*
X508059Y522214D01*
X508028Y522155D01*
X508020Y522101D01*
X508008Y522064D01*
X508008Y522061D01*
X508009Y522024D01*
X508001Y521970D01*
X508001Y519430D01*
X508012Y519365D01*
X508014Y519299D01*
X508032Y519256D01*
X508040Y519209D01*
X508074Y519152D01*
X508099Y519092D01*
X508130Y519057D01*
X508155Y519016D01*
X508206Y518975D01*
X508250Y518926D01*
X508292Y518904D01*
X508329Y518875D01*
X508391Y518854D01*
X508450Y518823D01*
X508504Y518815D01*
X508541Y518803D01*
X508581Y518804D01*
X508635Y518796D01*
X512445Y518796D01*
X512510Y518807D01*
G37*
G36*
X134050Y460387D02*
X134050Y460387D01*
X134116Y460389D01*
X134159Y460407D01*
X134206Y460415D01*
X134263Y460449D01*
X134323Y460474D01*
X134358Y460505D01*
X134399Y460530D01*
X134441Y460581D01*
X134489Y460625D01*
X134511Y460667D01*
X134540Y460704D01*
X134561Y460766D01*
X134592Y460825D01*
X134600Y460879D01*
X134612Y460916D01*
X134611Y460956D01*
X134619Y461010D01*
X134619Y463550D01*
X134608Y463615D01*
X134606Y463681D01*
X134588Y463724D01*
X134580Y463771D01*
X134546Y463828D01*
X134521Y463888D01*
X134490Y463923D01*
X134465Y463964D01*
X134414Y464006D01*
X134370Y464054D01*
X134328Y464076D01*
X134291Y464105D01*
X134229Y464126D01*
X134170Y464157D01*
X134116Y464165D01*
X134079Y464177D01*
X134039Y464176D01*
X133985Y464184D01*
X130175Y464184D01*
X130110Y464173D01*
X130044Y464171D01*
X130001Y464153D01*
X129954Y464145D01*
X129897Y464111D01*
X129837Y464086D01*
X129802Y464055D01*
X129761Y464030D01*
X129720Y463979D01*
X129671Y463935D01*
X129649Y463893D01*
X129620Y463856D01*
X129599Y463794D01*
X129568Y463735D01*
X129560Y463681D01*
X129548Y463644D01*
X129548Y463641D01*
X129549Y463604D01*
X129541Y463550D01*
X129541Y461010D01*
X129552Y460945D01*
X129554Y460879D01*
X129572Y460836D01*
X129580Y460789D01*
X129614Y460732D01*
X129639Y460672D01*
X129670Y460637D01*
X129695Y460596D01*
X129746Y460555D01*
X129790Y460506D01*
X129832Y460484D01*
X129869Y460455D01*
X129931Y460434D01*
X129990Y460403D01*
X130044Y460395D01*
X130081Y460383D01*
X130121Y460384D01*
X130175Y460376D01*
X133985Y460376D01*
X134050Y460387D01*
G37*
G36*
X753810Y460387D02*
X753810Y460387D01*
X753876Y460389D01*
X753919Y460407D01*
X753966Y460415D01*
X754023Y460449D01*
X754083Y460474D01*
X754118Y460505D01*
X754159Y460530D01*
X754201Y460581D01*
X754249Y460625D01*
X754271Y460667D01*
X754300Y460704D01*
X754321Y460766D01*
X754352Y460825D01*
X754360Y460879D01*
X754372Y460916D01*
X754371Y460956D01*
X754379Y461010D01*
X754379Y463550D01*
X754368Y463615D01*
X754366Y463681D01*
X754348Y463724D01*
X754340Y463771D01*
X754306Y463828D01*
X754281Y463888D01*
X754250Y463923D01*
X754225Y463964D01*
X754174Y464006D01*
X754130Y464054D01*
X754088Y464076D01*
X754051Y464105D01*
X753989Y464126D01*
X753930Y464157D01*
X753876Y464165D01*
X753839Y464177D01*
X753799Y464176D01*
X753745Y464184D01*
X749935Y464184D01*
X749870Y464173D01*
X749804Y464171D01*
X749761Y464153D01*
X749714Y464145D01*
X749657Y464111D01*
X749597Y464086D01*
X749562Y464055D01*
X749521Y464030D01*
X749480Y463979D01*
X749431Y463935D01*
X749409Y463893D01*
X749380Y463856D01*
X749359Y463794D01*
X749328Y463735D01*
X749320Y463681D01*
X749308Y463644D01*
X749308Y463641D01*
X749309Y463604D01*
X749301Y463550D01*
X749301Y461010D01*
X749312Y460945D01*
X749314Y460879D01*
X749332Y460836D01*
X749340Y460789D01*
X749374Y460732D01*
X749399Y460672D01*
X749430Y460637D01*
X749455Y460596D01*
X749506Y460555D01*
X749550Y460506D01*
X749592Y460484D01*
X749629Y460455D01*
X749691Y460434D01*
X749750Y460403D01*
X749804Y460395D01*
X749841Y460383D01*
X749881Y460384D01*
X749935Y460376D01*
X753745Y460376D01*
X753810Y460387D01*
G37*
G36*
X443930Y460387D02*
X443930Y460387D01*
X443996Y460389D01*
X444039Y460407D01*
X444086Y460415D01*
X444143Y460449D01*
X444203Y460474D01*
X444238Y460505D01*
X444279Y460530D01*
X444321Y460581D01*
X444369Y460625D01*
X444391Y460667D01*
X444420Y460704D01*
X444441Y460766D01*
X444472Y460825D01*
X444480Y460879D01*
X444492Y460916D01*
X444491Y460956D01*
X444499Y461010D01*
X444499Y463550D01*
X444488Y463615D01*
X444486Y463681D01*
X444468Y463724D01*
X444460Y463771D01*
X444426Y463828D01*
X444401Y463888D01*
X444370Y463923D01*
X444345Y463964D01*
X444294Y464006D01*
X444250Y464054D01*
X444208Y464076D01*
X444171Y464105D01*
X444109Y464126D01*
X444050Y464157D01*
X443996Y464165D01*
X443959Y464177D01*
X443919Y464176D01*
X443865Y464184D01*
X440055Y464184D01*
X439990Y464173D01*
X439924Y464171D01*
X439881Y464153D01*
X439834Y464145D01*
X439777Y464111D01*
X439717Y464086D01*
X439682Y464055D01*
X439641Y464030D01*
X439600Y463979D01*
X439551Y463935D01*
X439529Y463893D01*
X439500Y463856D01*
X439479Y463794D01*
X439448Y463735D01*
X439440Y463681D01*
X439428Y463644D01*
X439428Y463641D01*
X439429Y463604D01*
X439421Y463550D01*
X439421Y461010D01*
X439432Y460945D01*
X439434Y460879D01*
X439452Y460836D01*
X439460Y460789D01*
X439494Y460732D01*
X439519Y460672D01*
X439550Y460637D01*
X439575Y460596D01*
X439626Y460555D01*
X439670Y460506D01*
X439712Y460484D01*
X439749Y460455D01*
X439811Y460434D01*
X439870Y460403D01*
X439924Y460395D01*
X439961Y460383D01*
X440001Y460384D01*
X440055Y460376D01*
X443865Y460376D01*
X443930Y460387D01*
G37*
G36*
X1063690Y460387D02*
X1063690Y460387D01*
X1063756Y460389D01*
X1063799Y460407D01*
X1063846Y460415D01*
X1063903Y460449D01*
X1063963Y460474D01*
X1063998Y460505D01*
X1064039Y460530D01*
X1064081Y460581D01*
X1064129Y460625D01*
X1064151Y460667D01*
X1064180Y460704D01*
X1064201Y460766D01*
X1064232Y460825D01*
X1064240Y460879D01*
X1064252Y460916D01*
X1064251Y460956D01*
X1064259Y461010D01*
X1064259Y463550D01*
X1064248Y463615D01*
X1064246Y463681D01*
X1064228Y463724D01*
X1064220Y463771D01*
X1064186Y463828D01*
X1064161Y463888D01*
X1064130Y463923D01*
X1064105Y463964D01*
X1064054Y464006D01*
X1064010Y464054D01*
X1063968Y464076D01*
X1063931Y464105D01*
X1063869Y464126D01*
X1063810Y464157D01*
X1063756Y464165D01*
X1063719Y464177D01*
X1063679Y464176D01*
X1063625Y464184D01*
X1059815Y464184D01*
X1059750Y464173D01*
X1059684Y464171D01*
X1059641Y464153D01*
X1059594Y464145D01*
X1059537Y464111D01*
X1059477Y464086D01*
X1059442Y464055D01*
X1059401Y464030D01*
X1059360Y463979D01*
X1059311Y463935D01*
X1059289Y463893D01*
X1059260Y463856D01*
X1059239Y463794D01*
X1059208Y463735D01*
X1059200Y463681D01*
X1059188Y463644D01*
X1059188Y463641D01*
X1059189Y463604D01*
X1059181Y463550D01*
X1059181Y461010D01*
X1059192Y460945D01*
X1059194Y460879D01*
X1059212Y460836D01*
X1059220Y460789D01*
X1059254Y460732D01*
X1059279Y460672D01*
X1059310Y460637D01*
X1059335Y460596D01*
X1059386Y460555D01*
X1059430Y460506D01*
X1059472Y460484D01*
X1059509Y460455D01*
X1059571Y460434D01*
X1059630Y460403D01*
X1059684Y460395D01*
X1059721Y460383D01*
X1059761Y460384D01*
X1059815Y460376D01*
X1063625Y460376D01*
X1063690Y460387D01*
G37*
G36*
X1073850Y460387D02*
X1073850Y460387D01*
X1073916Y460389D01*
X1073959Y460407D01*
X1074006Y460415D01*
X1074063Y460449D01*
X1074123Y460474D01*
X1074158Y460505D01*
X1074199Y460530D01*
X1074241Y460581D01*
X1074289Y460625D01*
X1074311Y460667D01*
X1074340Y460704D01*
X1074361Y460766D01*
X1074392Y460825D01*
X1074400Y460879D01*
X1074412Y460916D01*
X1074411Y460956D01*
X1074419Y461010D01*
X1074419Y463550D01*
X1074408Y463615D01*
X1074406Y463681D01*
X1074388Y463724D01*
X1074380Y463771D01*
X1074346Y463828D01*
X1074321Y463888D01*
X1074290Y463923D01*
X1074265Y463964D01*
X1074214Y464006D01*
X1074170Y464054D01*
X1074128Y464076D01*
X1074091Y464105D01*
X1074029Y464126D01*
X1073970Y464157D01*
X1073916Y464165D01*
X1073879Y464177D01*
X1073839Y464176D01*
X1073785Y464184D01*
X1069975Y464184D01*
X1069910Y464173D01*
X1069844Y464171D01*
X1069801Y464153D01*
X1069754Y464145D01*
X1069697Y464111D01*
X1069637Y464086D01*
X1069602Y464055D01*
X1069561Y464030D01*
X1069520Y463979D01*
X1069471Y463935D01*
X1069449Y463893D01*
X1069420Y463856D01*
X1069399Y463794D01*
X1069368Y463735D01*
X1069360Y463681D01*
X1069348Y463644D01*
X1069348Y463641D01*
X1069349Y463604D01*
X1069341Y463550D01*
X1069341Y461010D01*
X1069352Y460945D01*
X1069354Y460879D01*
X1069372Y460836D01*
X1069380Y460789D01*
X1069414Y460732D01*
X1069439Y460672D01*
X1069470Y460637D01*
X1069495Y460596D01*
X1069546Y460555D01*
X1069590Y460506D01*
X1069632Y460484D01*
X1069669Y460455D01*
X1069731Y460434D01*
X1069790Y460403D01*
X1069844Y460395D01*
X1069881Y460383D01*
X1069921Y460384D01*
X1069975Y460376D01*
X1073785Y460376D01*
X1073850Y460387D01*
G37*
G36*
X144210Y460387D02*
X144210Y460387D01*
X144276Y460389D01*
X144319Y460407D01*
X144366Y460415D01*
X144423Y460449D01*
X144483Y460474D01*
X144518Y460505D01*
X144559Y460530D01*
X144601Y460581D01*
X144649Y460625D01*
X144671Y460667D01*
X144700Y460704D01*
X144721Y460766D01*
X144752Y460825D01*
X144760Y460879D01*
X144772Y460916D01*
X144771Y460956D01*
X144779Y461010D01*
X144779Y463550D01*
X144768Y463615D01*
X144766Y463681D01*
X144748Y463724D01*
X144740Y463771D01*
X144706Y463828D01*
X144681Y463888D01*
X144650Y463923D01*
X144625Y463964D01*
X144574Y464006D01*
X144530Y464054D01*
X144488Y464076D01*
X144451Y464105D01*
X144389Y464126D01*
X144330Y464157D01*
X144276Y464165D01*
X144239Y464177D01*
X144199Y464176D01*
X144145Y464184D01*
X140335Y464184D01*
X140270Y464173D01*
X140204Y464171D01*
X140161Y464153D01*
X140114Y464145D01*
X140057Y464111D01*
X139997Y464086D01*
X139962Y464055D01*
X139921Y464030D01*
X139880Y463979D01*
X139831Y463935D01*
X139809Y463893D01*
X139780Y463856D01*
X139759Y463794D01*
X139728Y463735D01*
X139720Y463681D01*
X139708Y463644D01*
X139708Y463641D01*
X139709Y463604D01*
X139701Y463550D01*
X139701Y461010D01*
X139712Y460945D01*
X139714Y460879D01*
X139732Y460836D01*
X139740Y460789D01*
X139774Y460732D01*
X139799Y460672D01*
X139830Y460637D01*
X139855Y460596D01*
X139906Y460555D01*
X139950Y460506D01*
X139992Y460484D01*
X140029Y460455D01*
X140091Y460434D01*
X140150Y460403D01*
X140204Y460395D01*
X140241Y460383D01*
X140281Y460384D01*
X140335Y460376D01*
X144145Y460376D01*
X144210Y460387D01*
G37*
G36*
X763970Y460387D02*
X763970Y460387D01*
X764036Y460389D01*
X764079Y460407D01*
X764126Y460415D01*
X764183Y460449D01*
X764243Y460474D01*
X764278Y460505D01*
X764319Y460530D01*
X764361Y460581D01*
X764409Y460625D01*
X764431Y460667D01*
X764460Y460704D01*
X764481Y460766D01*
X764512Y460825D01*
X764520Y460879D01*
X764532Y460916D01*
X764531Y460956D01*
X764539Y461010D01*
X764539Y463550D01*
X764528Y463615D01*
X764526Y463681D01*
X764508Y463724D01*
X764500Y463771D01*
X764466Y463828D01*
X764441Y463888D01*
X764410Y463923D01*
X764385Y463964D01*
X764334Y464006D01*
X764290Y464054D01*
X764248Y464076D01*
X764211Y464105D01*
X764149Y464126D01*
X764090Y464157D01*
X764036Y464165D01*
X763999Y464177D01*
X763959Y464176D01*
X763905Y464184D01*
X760095Y464184D01*
X760030Y464173D01*
X759964Y464171D01*
X759921Y464153D01*
X759874Y464145D01*
X759817Y464111D01*
X759757Y464086D01*
X759722Y464055D01*
X759681Y464030D01*
X759640Y463979D01*
X759591Y463935D01*
X759569Y463893D01*
X759540Y463856D01*
X759519Y463794D01*
X759488Y463735D01*
X759480Y463681D01*
X759468Y463644D01*
X759468Y463641D01*
X759469Y463604D01*
X759461Y463550D01*
X759461Y461010D01*
X759472Y460945D01*
X759474Y460879D01*
X759492Y460836D01*
X759500Y460789D01*
X759534Y460732D01*
X759559Y460672D01*
X759590Y460637D01*
X759615Y460596D01*
X759666Y460555D01*
X759710Y460506D01*
X759752Y460484D01*
X759789Y460455D01*
X759851Y460434D01*
X759910Y460403D01*
X759964Y460395D01*
X760001Y460383D01*
X760041Y460384D01*
X760095Y460376D01*
X763905Y460376D01*
X763970Y460387D01*
G37*
G36*
X454090Y460387D02*
X454090Y460387D01*
X454156Y460389D01*
X454199Y460407D01*
X454246Y460415D01*
X454303Y460449D01*
X454363Y460474D01*
X454398Y460505D01*
X454439Y460530D01*
X454481Y460581D01*
X454529Y460625D01*
X454551Y460667D01*
X454580Y460704D01*
X454601Y460766D01*
X454632Y460825D01*
X454640Y460879D01*
X454652Y460916D01*
X454651Y460956D01*
X454659Y461010D01*
X454659Y463550D01*
X454648Y463615D01*
X454646Y463681D01*
X454628Y463724D01*
X454620Y463771D01*
X454586Y463828D01*
X454561Y463888D01*
X454530Y463923D01*
X454505Y463964D01*
X454454Y464006D01*
X454410Y464054D01*
X454368Y464076D01*
X454331Y464105D01*
X454269Y464126D01*
X454210Y464157D01*
X454156Y464165D01*
X454119Y464177D01*
X454079Y464176D01*
X454025Y464184D01*
X450215Y464184D01*
X450150Y464173D01*
X450084Y464171D01*
X450041Y464153D01*
X449994Y464145D01*
X449937Y464111D01*
X449877Y464086D01*
X449842Y464055D01*
X449801Y464030D01*
X449760Y463979D01*
X449711Y463935D01*
X449689Y463893D01*
X449660Y463856D01*
X449639Y463794D01*
X449608Y463735D01*
X449600Y463681D01*
X449588Y463644D01*
X449588Y463641D01*
X449589Y463604D01*
X449581Y463550D01*
X449581Y461010D01*
X449592Y460945D01*
X449594Y460879D01*
X449612Y460836D01*
X449620Y460789D01*
X449654Y460732D01*
X449679Y460672D01*
X449710Y460637D01*
X449735Y460596D01*
X449786Y460555D01*
X449830Y460506D01*
X449872Y460484D01*
X449909Y460455D01*
X449971Y460434D01*
X450030Y460403D01*
X450084Y460395D01*
X450121Y460383D01*
X450161Y460384D01*
X450215Y460376D01*
X454025Y460376D01*
X454090Y460387D01*
G37*
G36*
X144210Y846467D02*
X144210Y846467D01*
X144276Y846469D01*
X144319Y846487D01*
X144366Y846495D01*
X144423Y846529D01*
X144483Y846554D01*
X144518Y846585D01*
X144559Y846610D01*
X144601Y846661D01*
X144649Y846705D01*
X144671Y846747D01*
X144700Y846784D01*
X144721Y846846D01*
X144752Y846905D01*
X144760Y846959D01*
X144772Y846996D01*
X144771Y847036D01*
X144779Y847090D01*
X144779Y849630D01*
X144768Y849695D01*
X144766Y849761D01*
X144748Y849804D01*
X144740Y849851D01*
X144706Y849908D01*
X144681Y849968D01*
X144650Y850003D01*
X144625Y850044D01*
X144574Y850086D01*
X144530Y850134D01*
X144488Y850156D01*
X144451Y850185D01*
X144389Y850206D01*
X144330Y850237D01*
X144276Y850245D01*
X144239Y850257D01*
X144199Y850256D01*
X144145Y850264D01*
X140335Y850264D01*
X140270Y850253D01*
X140204Y850251D01*
X140161Y850233D01*
X140114Y850225D01*
X140057Y850191D01*
X139997Y850166D01*
X139962Y850135D01*
X139921Y850110D01*
X139880Y850059D01*
X139831Y850015D01*
X139809Y849973D01*
X139780Y849936D01*
X139759Y849874D01*
X139728Y849815D01*
X139720Y849761D01*
X139708Y849724D01*
X139708Y849721D01*
X139709Y849684D01*
X139701Y849630D01*
X139701Y847090D01*
X139712Y847025D01*
X139714Y846959D01*
X139732Y846916D01*
X139740Y846869D01*
X139774Y846812D01*
X139799Y846752D01*
X139830Y846717D01*
X139855Y846676D01*
X139906Y846635D01*
X139950Y846586D01*
X139992Y846564D01*
X140029Y846535D01*
X140091Y846514D01*
X140150Y846483D01*
X140204Y846475D01*
X140241Y846463D01*
X140281Y846464D01*
X140335Y846456D01*
X144145Y846456D01*
X144210Y846467D01*
G37*
G36*
X753810Y846467D02*
X753810Y846467D01*
X753876Y846469D01*
X753919Y846487D01*
X753966Y846495D01*
X754023Y846529D01*
X754083Y846554D01*
X754118Y846585D01*
X754159Y846610D01*
X754201Y846661D01*
X754249Y846705D01*
X754271Y846747D01*
X754300Y846784D01*
X754321Y846846D01*
X754352Y846905D01*
X754360Y846959D01*
X754372Y846996D01*
X754371Y847036D01*
X754379Y847090D01*
X754379Y849630D01*
X754368Y849695D01*
X754366Y849761D01*
X754348Y849804D01*
X754340Y849851D01*
X754306Y849908D01*
X754281Y849968D01*
X754250Y850003D01*
X754225Y850044D01*
X754174Y850086D01*
X754130Y850134D01*
X754088Y850156D01*
X754051Y850185D01*
X753989Y850206D01*
X753930Y850237D01*
X753876Y850245D01*
X753839Y850257D01*
X753799Y850256D01*
X753745Y850264D01*
X749935Y850264D01*
X749870Y850253D01*
X749804Y850251D01*
X749761Y850233D01*
X749714Y850225D01*
X749657Y850191D01*
X749597Y850166D01*
X749562Y850135D01*
X749521Y850110D01*
X749480Y850059D01*
X749431Y850015D01*
X749409Y849973D01*
X749380Y849936D01*
X749359Y849874D01*
X749328Y849815D01*
X749320Y849761D01*
X749308Y849724D01*
X749308Y849721D01*
X749309Y849684D01*
X749301Y849630D01*
X749301Y847090D01*
X749312Y847025D01*
X749314Y846959D01*
X749332Y846916D01*
X749340Y846869D01*
X749374Y846812D01*
X749399Y846752D01*
X749430Y846717D01*
X749455Y846676D01*
X749506Y846635D01*
X749550Y846586D01*
X749592Y846564D01*
X749629Y846535D01*
X749691Y846514D01*
X749750Y846483D01*
X749804Y846475D01*
X749841Y846463D01*
X749881Y846464D01*
X749935Y846456D01*
X753745Y846456D01*
X753810Y846467D01*
G37*
G36*
X1063690Y846467D02*
X1063690Y846467D01*
X1063756Y846469D01*
X1063799Y846487D01*
X1063846Y846495D01*
X1063903Y846529D01*
X1063963Y846554D01*
X1063998Y846585D01*
X1064039Y846610D01*
X1064081Y846661D01*
X1064129Y846705D01*
X1064151Y846747D01*
X1064180Y846784D01*
X1064201Y846846D01*
X1064232Y846905D01*
X1064240Y846959D01*
X1064252Y846996D01*
X1064251Y847036D01*
X1064259Y847090D01*
X1064259Y849630D01*
X1064248Y849695D01*
X1064246Y849761D01*
X1064228Y849804D01*
X1064220Y849851D01*
X1064186Y849908D01*
X1064161Y849968D01*
X1064130Y850003D01*
X1064105Y850044D01*
X1064054Y850086D01*
X1064010Y850134D01*
X1063968Y850156D01*
X1063931Y850185D01*
X1063869Y850206D01*
X1063810Y850237D01*
X1063756Y850245D01*
X1063719Y850257D01*
X1063679Y850256D01*
X1063625Y850264D01*
X1059815Y850264D01*
X1059750Y850253D01*
X1059684Y850251D01*
X1059641Y850233D01*
X1059594Y850225D01*
X1059537Y850191D01*
X1059477Y850166D01*
X1059442Y850135D01*
X1059401Y850110D01*
X1059360Y850059D01*
X1059311Y850015D01*
X1059289Y849973D01*
X1059260Y849936D01*
X1059239Y849874D01*
X1059208Y849815D01*
X1059200Y849761D01*
X1059188Y849724D01*
X1059188Y849721D01*
X1059189Y849684D01*
X1059181Y849630D01*
X1059181Y847090D01*
X1059192Y847025D01*
X1059194Y846959D01*
X1059212Y846916D01*
X1059220Y846869D01*
X1059254Y846812D01*
X1059279Y846752D01*
X1059310Y846717D01*
X1059335Y846676D01*
X1059386Y846635D01*
X1059430Y846586D01*
X1059472Y846564D01*
X1059509Y846535D01*
X1059571Y846514D01*
X1059630Y846483D01*
X1059684Y846475D01*
X1059721Y846463D01*
X1059761Y846464D01*
X1059815Y846456D01*
X1063625Y846456D01*
X1063690Y846467D01*
G37*
G36*
X443930Y846467D02*
X443930Y846467D01*
X443996Y846469D01*
X444039Y846487D01*
X444086Y846495D01*
X444143Y846529D01*
X444203Y846554D01*
X444238Y846585D01*
X444279Y846610D01*
X444321Y846661D01*
X444369Y846705D01*
X444391Y846747D01*
X444420Y846784D01*
X444441Y846846D01*
X444472Y846905D01*
X444480Y846959D01*
X444492Y846996D01*
X444491Y847036D01*
X444499Y847090D01*
X444499Y849630D01*
X444488Y849695D01*
X444486Y849761D01*
X444468Y849804D01*
X444460Y849851D01*
X444426Y849908D01*
X444401Y849968D01*
X444370Y850003D01*
X444345Y850044D01*
X444294Y850086D01*
X444250Y850134D01*
X444208Y850156D01*
X444171Y850185D01*
X444109Y850206D01*
X444050Y850237D01*
X443996Y850245D01*
X443959Y850257D01*
X443919Y850256D01*
X443865Y850264D01*
X440055Y850264D01*
X439990Y850253D01*
X439924Y850251D01*
X439881Y850233D01*
X439834Y850225D01*
X439777Y850191D01*
X439717Y850166D01*
X439682Y850135D01*
X439641Y850110D01*
X439600Y850059D01*
X439551Y850015D01*
X439529Y849973D01*
X439500Y849936D01*
X439479Y849874D01*
X439448Y849815D01*
X439440Y849761D01*
X439428Y849724D01*
X439428Y849721D01*
X439429Y849684D01*
X439421Y849630D01*
X439421Y847090D01*
X439432Y847025D01*
X439434Y846959D01*
X439452Y846916D01*
X439460Y846869D01*
X439494Y846812D01*
X439519Y846752D01*
X439550Y846717D01*
X439575Y846676D01*
X439626Y846635D01*
X439670Y846586D01*
X439712Y846564D01*
X439749Y846535D01*
X439811Y846514D01*
X439870Y846483D01*
X439924Y846475D01*
X439961Y846463D01*
X440001Y846464D01*
X440055Y846456D01*
X443865Y846456D01*
X443930Y846467D01*
G37*
G36*
X1132270Y132727D02*
X1132270Y132727D01*
X1132336Y132729D01*
X1132379Y132747D01*
X1132426Y132755D01*
X1132483Y132789D01*
X1132543Y132814D01*
X1132578Y132845D01*
X1132619Y132870D01*
X1132661Y132921D01*
X1132709Y132965D01*
X1132731Y133007D01*
X1132760Y133044D01*
X1132781Y133106D01*
X1132812Y133165D01*
X1132820Y133219D01*
X1132832Y133256D01*
X1132831Y133296D01*
X1132839Y133350D01*
X1132839Y135890D01*
X1132828Y135955D01*
X1132826Y136021D01*
X1132808Y136064D01*
X1132800Y136111D01*
X1132766Y136168D01*
X1132741Y136228D01*
X1132710Y136263D01*
X1132685Y136304D01*
X1132634Y136346D01*
X1132590Y136394D01*
X1132548Y136416D01*
X1132511Y136445D01*
X1132449Y136466D01*
X1132390Y136497D01*
X1132336Y136505D01*
X1132299Y136517D01*
X1132259Y136516D01*
X1132205Y136524D01*
X1128395Y136524D01*
X1128330Y136513D01*
X1128264Y136511D01*
X1128221Y136493D01*
X1128174Y136485D01*
X1128117Y136451D01*
X1128057Y136426D01*
X1128022Y136395D01*
X1127981Y136370D01*
X1127940Y136319D01*
X1127891Y136275D01*
X1127869Y136233D01*
X1127840Y136196D01*
X1127819Y136134D01*
X1127788Y136075D01*
X1127780Y136021D01*
X1127768Y135984D01*
X1127768Y135981D01*
X1127769Y135944D01*
X1127761Y135890D01*
X1127761Y133350D01*
X1127772Y133285D01*
X1127774Y133219D01*
X1127792Y133176D01*
X1127800Y133129D01*
X1127834Y133072D01*
X1127859Y133012D01*
X1127890Y132977D01*
X1127915Y132936D01*
X1127966Y132895D01*
X1128010Y132846D01*
X1128052Y132824D01*
X1128089Y132795D01*
X1128151Y132774D01*
X1128210Y132743D01*
X1128264Y132735D01*
X1128301Y132723D01*
X1128341Y132724D01*
X1128395Y132716D01*
X1132205Y132716D01*
X1132270Y132727D01*
G37*
G36*
X822390Y132727D02*
X822390Y132727D01*
X822456Y132729D01*
X822499Y132747D01*
X822546Y132755D01*
X822603Y132789D01*
X822663Y132814D01*
X822698Y132845D01*
X822739Y132870D01*
X822781Y132921D01*
X822829Y132965D01*
X822851Y133007D01*
X822880Y133044D01*
X822901Y133106D01*
X822932Y133165D01*
X822940Y133219D01*
X822952Y133256D01*
X822951Y133296D01*
X822959Y133350D01*
X822959Y135890D01*
X822948Y135955D01*
X822946Y136021D01*
X822928Y136064D01*
X822920Y136111D01*
X822886Y136168D01*
X822861Y136228D01*
X822830Y136263D01*
X822805Y136304D01*
X822754Y136346D01*
X822710Y136394D01*
X822668Y136416D01*
X822631Y136445D01*
X822569Y136466D01*
X822510Y136497D01*
X822456Y136505D01*
X822419Y136517D01*
X822379Y136516D01*
X822325Y136524D01*
X818515Y136524D01*
X818450Y136513D01*
X818384Y136511D01*
X818341Y136493D01*
X818294Y136485D01*
X818237Y136451D01*
X818177Y136426D01*
X818142Y136395D01*
X818101Y136370D01*
X818060Y136319D01*
X818011Y136275D01*
X817989Y136233D01*
X817960Y136196D01*
X817939Y136134D01*
X817908Y136075D01*
X817900Y136021D01*
X817888Y135984D01*
X817888Y135981D01*
X817889Y135944D01*
X817881Y135890D01*
X817881Y133350D01*
X817892Y133285D01*
X817894Y133219D01*
X817912Y133176D01*
X817920Y133129D01*
X817954Y133072D01*
X817979Y133012D01*
X818010Y132977D01*
X818035Y132936D01*
X818086Y132895D01*
X818130Y132846D01*
X818172Y132824D01*
X818209Y132795D01*
X818271Y132774D01*
X818330Y132743D01*
X818384Y132735D01*
X818421Y132723D01*
X818461Y132724D01*
X818515Y132716D01*
X822325Y132716D01*
X822390Y132727D01*
G37*
G36*
X512510Y132727D02*
X512510Y132727D01*
X512576Y132729D01*
X512619Y132747D01*
X512666Y132755D01*
X512723Y132789D01*
X512783Y132814D01*
X512818Y132845D01*
X512859Y132870D01*
X512901Y132921D01*
X512949Y132965D01*
X512971Y133007D01*
X513000Y133044D01*
X513021Y133106D01*
X513052Y133165D01*
X513060Y133219D01*
X513072Y133256D01*
X513071Y133296D01*
X513079Y133350D01*
X513079Y135890D01*
X513068Y135955D01*
X513066Y136021D01*
X513048Y136064D01*
X513040Y136111D01*
X513006Y136168D01*
X512981Y136228D01*
X512950Y136263D01*
X512925Y136304D01*
X512874Y136346D01*
X512830Y136394D01*
X512788Y136416D01*
X512751Y136445D01*
X512689Y136466D01*
X512630Y136497D01*
X512576Y136505D01*
X512539Y136517D01*
X512499Y136516D01*
X512445Y136524D01*
X508635Y136524D01*
X508570Y136513D01*
X508504Y136511D01*
X508461Y136493D01*
X508414Y136485D01*
X508357Y136451D01*
X508297Y136426D01*
X508262Y136395D01*
X508221Y136370D01*
X508180Y136319D01*
X508131Y136275D01*
X508109Y136233D01*
X508080Y136196D01*
X508059Y136134D01*
X508028Y136075D01*
X508020Y136021D01*
X508008Y135984D01*
X508008Y135981D01*
X508009Y135944D01*
X508001Y135890D01*
X508001Y133350D01*
X508012Y133285D01*
X508014Y133219D01*
X508032Y133176D01*
X508040Y133129D01*
X508074Y133072D01*
X508099Y133012D01*
X508130Y132977D01*
X508155Y132936D01*
X508206Y132895D01*
X508250Y132846D01*
X508292Y132824D01*
X508329Y132795D01*
X508391Y132774D01*
X508450Y132743D01*
X508504Y132735D01*
X508541Y132723D01*
X508581Y132724D01*
X508635Y132716D01*
X512445Y132716D01*
X512510Y132727D01*
G37*
G36*
X202630Y132727D02*
X202630Y132727D01*
X202696Y132729D01*
X202739Y132747D01*
X202786Y132755D01*
X202843Y132789D01*
X202903Y132814D01*
X202938Y132845D01*
X202979Y132870D01*
X203021Y132921D01*
X203069Y132965D01*
X203091Y133007D01*
X203120Y133044D01*
X203141Y133106D01*
X203172Y133165D01*
X203180Y133219D01*
X203192Y133256D01*
X203191Y133296D01*
X203199Y133350D01*
X203199Y135890D01*
X203188Y135955D01*
X203186Y136021D01*
X203168Y136064D01*
X203160Y136111D01*
X203126Y136168D01*
X203101Y136228D01*
X203070Y136263D01*
X203045Y136304D01*
X202994Y136346D01*
X202950Y136394D01*
X202908Y136416D01*
X202871Y136445D01*
X202809Y136466D01*
X202750Y136497D01*
X202696Y136505D01*
X202659Y136517D01*
X202619Y136516D01*
X202565Y136524D01*
X198755Y136524D01*
X198690Y136513D01*
X198624Y136511D01*
X198581Y136493D01*
X198534Y136485D01*
X198477Y136451D01*
X198417Y136426D01*
X198382Y136395D01*
X198341Y136370D01*
X198300Y136319D01*
X198251Y136275D01*
X198229Y136233D01*
X198200Y136196D01*
X198179Y136134D01*
X198148Y136075D01*
X198140Y136021D01*
X198128Y135984D01*
X198128Y135981D01*
X198129Y135944D01*
X198121Y135890D01*
X198121Y133350D01*
X198132Y133285D01*
X198134Y133219D01*
X198152Y133176D01*
X198160Y133129D01*
X198194Y133072D01*
X198219Y133012D01*
X198250Y132977D01*
X198275Y132936D01*
X198326Y132895D01*
X198370Y132846D01*
X198412Y132824D01*
X198449Y132795D01*
X198511Y132774D01*
X198570Y132743D01*
X198624Y132735D01*
X198661Y132723D01*
X198701Y132724D01*
X198755Y132716D01*
X202565Y132716D01*
X202630Y132727D01*
G37*
G36*
X454090Y74307D02*
X454090Y74307D01*
X454156Y74309D01*
X454199Y74327D01*
X454246Y74335D01*
X454303Y74369D01*
X454363Y74394D01*
X454398Y74425D01*
X454439Y74450D01*
X454481Y74501D01*
X454529Y74545D01*
X454551Y74587D01*
X454580Y74624D01*
X454601Y74686D01*
X454632Y74745D01*
X454640Y74799D01*
X454652Y74836D01*
X454651Y74876D01*
X454659Y74930D01*
X454659Y77470D01*
X454648Y77535D01*
X454646Y77601D01*
X454628Y77644D01*
X454620Y77691D01*
X454586Y77748D01*
X454561Y77808D01*
X454530Y77843D01*
X454505Y77884D01*
X454454Y77926D01*
X454410Y77974D01*
X454368Y77996D01*
X454331Y78025D01*
X454269Y78046D01*
X454210Y78077D01*
X454156Y78085D01*
X454119Y78097D01*
X454079Y78096D01*
X454025Y78104D01*
X450215Y78104D01*
X450150Y78093D01*
X450084Y78091D01*
X450041Y78073D01*
X449994Y78065D01*
X449937Y78031D01*
X449877Y78006D01*
X449842Y77975D01*
X449801Y77950D01*
X449760Y77899D01*
X449711Y77855D01*
X449689Y77813D01*
X449660Y77776D01*
X449639Y77714D01*
X449608Y77655D01*
X449600Y77601D01*
X449588Y77564D01*
X449588Y77561D01*
X449589Y77524D01*
X449581Y77470D01*
X449581Y74930D01*
X449592Y74865D01*
X449594Y74799D01*
X449612Y74756D01*
X449620Y74709D01*
X449654Y74652D01*
X449679Y74592D01*
X449710Y74557D01*
X449735Y74516D01*
X449786Y74475D01*
X449830Y74426D01*
X449872Y74404D01*
X449909Y74375D01*
X449971Y74354D01*
X450030Y74323D01*
X450084Y74315D01*
X450121Y74303D01*
X450161Y74304D01*
X450215Y74296D01*
X454025Y74296D01*
X454090Y74307D01*
G37*
G36*
X1073850Y74307D02*
X1073850Y74307D01*
X1073916Y74309D01*
X1073959Y74327D01*
X1074006Y74335D01*
X1074063Y74369D01*
X1074123Y74394D01*
X1074158Y74425D01*
X1074199Y74450D01*
X1074241Y74501D01*
X1074289Y74545D01*
X1074311Y74587D01*
X1074340Y74624D01*
X1074361Y74686D01*
X1074392Y74745D01*
X1074400Y74799D01*
X1074412Y74836D01*
X1074411Y74876D01*
X1074419Y74930D01*
X1074419Y77470D01*
X1074408Y77535D01*
X1074406Y77601D01*
X1074388Y77644D01*
X1074380Y77691D01*
X1074346Y77748D01*
X1074321Y77808D01*
X1074290Y77843D01*
X1074265Y77884D01*
X1074214Y77926D01*
X1074170Y77974D01*
X1074128Y77996D01*
X1074091Y78025D01*
X1074029Y78046D01*
X1073970Y78077D01*
X1073916Y78085D01*
X1073879Y78097D01*
X1073839Y78096D01*
X1073785Y78104D01*
X1069975Y78104D01*
X1069910Y78093D01*
X1069844Y78091D01*
X1069801Y78073D01*
X1069754Y78065D01*
X1069697Y78031D01*
X1069637Y78006D01*
X1069602Y77975D01*
X1069561Y77950D01*
X1069520Y77899D01*
X1069471Y77855D01*
X1069449Y77813D01*
X1069420Y77776D01*
X1069399Y77714D01*
X1069368Y77655D01*
X1069360Y77601D01*
X1069348Y77564D01*
X1069348Y77561D01*
X1069349Y77524D01*
X1069341Y77470D01*
X1069341Y74930D01*
X1069352Y74865D01*
X1069354Y74799D01*
X1069372Y74756D01*
X1069380Y74709D01*
X1069414Y74652D01*
X1069439Y74592D01*
X1069470Y74557D01*
X1069495Y74516D01*
X1069546Y74475D01*
X1069590Y74426D01*
X1069632Y74404D01*
X1069669Y74375D01*
X1069731Y74354D01*
X1069790Y74323D01*
X1069844Y74315D01*
X1069881Y74303D01*
X1069921Y74304D01*
X1069975Y74296D01*
X1073785Y74296D01*
X1073850Y74307D01*
G37*
G36*
X753810Y74307D02*
X753810Y74307D01*
X753876Y74309D01*
X753919Y74327D01*
X753966Y74335D01*
X754023Y74369D01*
X754083Y74394D01*
X754118Y74425D01*
X754159Y74450D01*
X754201Y74501D01*
X754249Y74545D01*
X754271Y74587D01*
X754300Y74624D01*
X754321Y74686D01*
X754352Y74745D01*
X754360Y74799D01*
X754372Y74836D01*
X754371Y74876D01*
X754379Y74930D01*
X754379Y77470D01*
X754368Y77535D01*
X754366Y77601D01*
X754348Y77644D01*
X754340Y77691D01*
X754306Y77748D01*
X754281Y77808D01*
X754250Y77843D01*
X754225Y77884D01*
X754174Y77926D01*
X754130Y77974D01*
X754088Y77996D01*
X754051Y78025D01*
X753989Y78046D01*
X753930Y78077D01*
X753876Y78085D01*
X753839Y78097D01*
X753799Y78096D01*
X753745Y78104D01*
X749935Y78104D01*
X749870Y78093D01*
X749804Y78091D01*
X749761Y78073D01*
X749714Y78065D01*
X749657Y78031D01*
X749597Y78006D01*
X749562Y77975D01*
X749521Y77950D01*
X749480Y77899D01*
X749431Y77855D01*
X749409Y77813D01*
X749380Y77776D01*
X749359Y77714D01*
X749328Y77655D01*
X749320Y77601D01*
X749308Y77564D01*
X749308Y77561D01*
X749309Y77524D01*
X749301Y77470D01*
X749301Y74930D01*
X749312Y74865D01*
X749314Y74799D01*
X749332Y74756D01*
X749340Y74709D01*
X749374Y74652D01*
X749399Y74592D01*
X749430Y74557D01*
X749455Y74516D01*
X749506Y74475D01*
X749550Y74426D01*
X749592Y74404D01*
X749629Y74375D01*
X749691Y74354D01*
X749750Y74323D01*
X749804Y74315D01*
X749841Y74303D01*
X749881Y74304D01*
X749935Y74296D01*
X753745Y74296D01*
X753810Y74307D01*
G37*
G36*
X443930Y74307D02*
X443930Y74307D01*
X443996Y74309D01*
X444039Y74327D01*
X444086Y74335D01*
X444143Y74369D01*
X444203Y74394D01*
X444238Y74425D01*
X444279Y74450D01*
X444321Y74501D01*
X444369Y74545D01*
X444391Y74587D01*
X444420Y74624D01*
X444441Y74686D01*
X444472Y74745D01*
X444480Y74799D01*
X444492Y74836D01*
X444491Y74876D01*
X444499Y74930D01*
X444499Y77470D01*
X444488Y77535D01*
X444486Y77601D01*
X444468Y77644D01*
X444460Y77691D01*
X444426Y77748D01*
X444401Y77808D01*
X444370Y77843D01*
X444345Y77884D01*
X444294Y77926D01*
X444250Y77974D01*
X444208Y77996D01*
X444171Y78025D01*
X444109Y78046D01*
X444050Y78077D01*
X443996Y78085D01*
X443959Y78097D01*
X443919Y78096D01*
X443865Y78104D01*
X440055Y78104D01*
X439990Y78093D01*
X439924Y78091D01*
X439881Y78073D01*
X439834Y78065D01*
X439777Y78031D01*
X439717Y78006D01*
X439682Y77975D01*
X439641Y77950D01*
X439600Y77899D01*
X439551Y77855D01*
X439529Y77813D01*
X439500Y77776D01*
X439479Y77714D01*
X439448Y77655D01*
X439440Y77601D01*
X439428Y77564D01*
X439428Y77561D01*
X439429Y77524D01*
X439421Y77470D01*
X439421Y74930D01*
X439432Y74865D01*
X439434Y74799D01*
X439452Y74756D01*
X439460Y74709D01*
X439494Y74652D01*
X439519Y74592D01*
X439550Y74557D01*
X439575Y74516D01*
X439626Y74475D01*
X439670Y74426D01*
X439712Y74404D01*
X439749Y74375D01*
X439811Y74354D01*
X439870Y74323D01*
X439924Y74315D01*
X439961Y74303D01*
X440001Y74304D01*
X440055Y74296D01*
X443865Y74296D01*
X443930Y74307D01*
G37*
G36*
X1063690Y74307D02*
X1063690Y74307D01*
X1063756Y74309D01*
X1063799Y74327D01*
X1063846Y74335D01*
X1063903Y74369D01*
X1063963Y74394D01*
X1063998Y74425D01*
X1064039Y74450D01*
X1064081Y74501D01*
X1064129Y74545D01*
X1064151Y74587D01*
X1064180Y74624D01*
X1064201Y74686D01*
X1064232Y74745D01*
X1064240Y74799D01*
X1064252Y74836D01*
X1064251Y74876D01*
X1064259Y74930D01*
X1064259Y77470D01*
X1064248Y77535D01*
X1064246Y77601D01*
X1064228Y77644D01*
X1064220Y77691D01*
X1064186Y77748D01*
X1064161Y77808D01*
X1064130Y77843D01*
X1064105Y77884D01*
X1064054Y77926D01*
X1064010Y77974D01*
X1063968Y77996D01*
X1063931Y78025D01*
X1063869Y78046D01*
X1063810Y78077D01*
X1063756Y78085D01*
X1063719Y78097D01*
X1063679Y78096D01*
X1063625Y78104D01*
X1059815Y78104D01*
X1059750Y78093D01*
X1059684Y78091D01*
X1059641Y78073D01*
X1059594Y78065D01*
X1059537Y78031D01*
X1059477Y78006D01*
X1059442Y77975D01*
X1059401Y77950D01*
X1059360Y77899D01*
X1059311Y77855D01*
X1059289Y77813D01*
X1059260Y77776D01*
X1059239Y77714D01*
X1059208Y77655D01*
X1059200Y77601D01*
X1059188Y77564D01*
X1059188Y77561D01*
X1059189Y77524D01*
X1059181Y77470D01*
X1059181Y74930D01*
X1059192Y74865D01*
X1059194Y74799D01*
X1059212Y74756D01*
X1059220Y74709D01*
X1059254Y74652D01*
X1059279Y74592D01*
X1059310Y74557D01*
X1059335Y74516D01*
X1059386Y74475D01*
X1059430Y74426D01*
X1059472Y74404D01*
X1059509Y74375D01*
X1059571Y74354D01*
X1059630Y74323D01*
X1059684Y74315D01*
X1059721Y74303D01*
X1059761Y74304D01*
X1059815Y74296D01*
X1063625Y74296D01*
X1063690Y74307D01*
G37*
G36*
X763970Y74307D02*
X763970Y74307D01*
X764036Y74309D01*
X764079Y74327D01*
X764126Y74335D01*
X764183Y74369D01*
X764243Y74394D01*
X764278Y74425D01*
X764319Y74450D01*
X764361Y74501D01*
X764409Y74545D01*
X764431Y74587D01*
X764460Y74624D01*
X764481Y74686D01*
X764512Y74745D01*
X764520Y74799D01*
X764532Y74836D01*
X764531Y74876D01*
X764539Y74930D01*
X764539Y77470D01*
X764528Y77535D01*
X764526Y77601D01*
X764508Y77644D01*
X764500Y77691D01*
X764466Y77748D01*
X764441Y77808D01*
X764410Y77843D01*
X764385Y77884D01*
X764334Y77926D01*
X764290Y77974D01*
X764248Y77996D01*
X764211Y78025D01*
X764149Y78046D01*
X764090Y78077D01*
X764036Y78085D01*
X763999Y78097D01*
X763959Y78096D01*
X763905Y78104D01*
X760095Y78104D01*
X760030Y78093D01*
X759964Y78091D01*
X759921Y78073D01*
X759874Y78065D01*
X759817Y78031D01*
X759757Y78006D01*
X759722Y77975D01*
X759681Y77950D01*
X759640Y77899D01*
X759591Y77855D01*
X759569Y77813D01*
X759540Y77776D01*
X759519Y77714D01*
X759488Y77655D01*
X759480Y77601D01*
X759468Y77564D01*
X759468Y77561D01*
X759469Y77524D01*
X759461Y77470D01*
X759461Y74930D01*
X759472Y74865D01*
X759474Y74799D01*
X759492Y74756D01*
X759500Y74709D01*
X759534Y74652D01*
X759559Y74592D01*
X759590Y74557D01*
X759615Y74516D01*
X759666Y74475D01*
X759710Y74426D01*
X759752Y74404D01*
X759789Y74375D01*
X759851Y74354D01*
X759910Y74323D01*
X759964Y74315D01*
X760001Y74303D01*
X760041Y74304D01*
X760095Y74296D01*
X763905Y74296D01*
X763970Y74307D01*
G37*
G36*
X134050Y74307D02*
X134050Y74307D01*
X134116Y74309D01*
X134159Y74327D01*
X134206Y74335D01*
X134263Y74369D01*
X134323Y74394D01*
X134358Y74425D01*
X134399Y74450D01*
X134441Y74501D01*
X134489Y74545D01*
X134511Y74587D01*
X134540Y74624D01*
X134561Y74686D01*
X134592Y74745D01*
X134600Y74799D01*
X134612Y74836D01*
X134611Y74876D01*
X134619Y74930D01*
X134619Y77470D01*
X134608Y77535D01*
X134606Y77601D01*
X134588Y77644D01*
X134580Y77691D01*
X134546Y77748D01*
X134521Y77808D01*
X134490Y77843D01*
X134465Y77884D01*
X134414Y77926D01*
X134370Y77974D01*
X134328Y77996D01*
X134291Y78025D01*
X134229Y78046D01*
X134170Y78077D01*
X134116Y78085D01*
X134079Y78097D01*
X134039Y78096D01*
X133985Y78104D01*
X130175Y78104D01*
X130110Y78093D01*
X130044Y78091D01*
X130001Y78073D01*
X129954Y78065D01*
X129897Y78031D01*
X129837Y78006D01*
X129802Y77975D01*
X129761Y77950D01*
X129720Y77899D01*
X129671Y77855D01*
X129649Y77813D01*
X129620Y77776D01*
X129599Y77714D01*
X129568Y77655D01*
X129560Y77601D01*
X129548Y77564D01*
X129548Y77561D01*
X129549Y77524D01*
X129541Y77470D01*
X129541Y74930D01*
X129552Y74865D01*
X129554Y74799D01*
X129572Y74756D01*
X129580Y74709D01*
X129614Y74652D01*
X129639Y74592D01*
X129670Y74557D01*
X129695Y74516D01*
X129746Y74475D01*
X129790Y74426D01*
X129832Y74404D01*
X129869Y74375D01*
X129931Y74354D01*
X129990Y74323D01*
X130044Y74315D01*
X130081Y74303D01*
X130121Y74304D01*
X130175Y74296D01*
X133985Y74296D01*
X134050Y74307D01*
G37*
G36*
X144210Y74307D02*
X144210Y74307D01*
X144276Y74309D01*
X144319Y74327D01*
X144366Y74335D01*
X144423Y74369D01*
X144483Y74394D01*
X144518Y74425D01*
X144559Y74450D01*
X144601Y74501D01*
X144649Y74545D01*
X144671Y74587D01*
X144700Y74624D01*
X144721Y74686D01*
X144752Y74745D01*
X144760Y74799D01*
X144772Y74836D01*
X144771Y74876D01*
X144779Y74930D01*
X144779Y77470D01*
X144768Y77535D01*
X144766Y77601D01*
X144748Y77644D01*
X144740Y77691D01*
X144706Y77748D01*
X144681Y77808D01*
X144650Y77843D01*
X144625Y77884D01*
X144574Y77926D01*
X144530Y77974D01*
X144488Y77996D01*
X144451Y78025D01*
X144389Y78046D01*
X144330Y78077D01*
X144276Y78085D01*
X144239Y78097D01*
X144199Y78096D01*
X144145Y78104D01*
X140335Y78104D01*
X140270Y78093D01*
X140204Y78091D01*
X140161Y78073D01*
X140114Y78065D01*
X140057Y78031D01*
X139997Y78006D01*
X139962Y77975D01*
X139921Y77950D01*
X139880Y77899D01*
X139831Y77855D01*
X139809Y77813D01*
X139780Y77776D01*
X139759Y77714D01*
X139728Y77655D01*
X139720Y77601D01*
X139708Y77564D01*
X139708Y77561D01*
X139709Y77524D01*
X139701Y77470D01*
X139701Y74930D01*
X139712Y74865D01*
X139714Y74799D01*
X139732Y74756D01*
X139740Y74709D01*
X139774Y74652D01*
X139799Y74592D01*
X139830Y74557D01*
X139855Y74516D01*
X139906Y74475D01*
X139950Y74426D01*
X139992Y74404D01*
X140029Y74375D01*
X140091Y74354D01*
X140150Y74323D01*
X140204Y74315D01*
X140241Y74303D01*
X140281Y74304D01*
X140335Y74296D01*
X144145Y74296D01*
X144210Y74307D01*
G37*
D10*
X25400Y25400D03*
X279400Y25400D03*
D11*
X7620Y144780D03*
X295910Y8890D03*
D12*
X139700Y12700D03*
X165100Y12700D03*
X190500Y12700D03*
X215900Y12700D03*
D13*
X126746Y76200D03*
X137160Y76200D03*
X147574Y76200D03*
D12*
X114300Y12700D03*
D13*
X195453Y134620D03*
X205867Y134620D03*
D12*
X88900Y12700D03*
D14*
X241300Y317500D03*
X63500Y317500D03*
D15*
X80000Y165100D02*
X224800Y165100D01*
D16*
X241300Y317500D03*
X63500Y317500D03*
D12*
X228600Y190500D03*
X76200Y190500D03*
X292100Y177800D03*
X12700Y177800D03*
D17*
X266700Y188087D03*
X266700Y177673D03*
D10*
X335280Y25400D03*
X589280Y25400D03*
D11*
X317500Y144780D03*
X605790Y8890D03*
D12*
X449580Y12700D03*
X474980Y12700D03*
X500380Y12700D03*
X525780Y12700D03*
D13*
X436626Y76200D03*
X447040Y76200D03*
X457454Y76200D03*
D12*
X424180Y12700D03*
D13*
X505333Y134620D03*
X515747Y134620D03*
D12*
X398780Y12700D03*
D14*
X551180Y317500D03*
X373380Y317500D03*
D15*
X389880Y165100D02*
X534680Y165100D01*
D16*
X551180Y317500D03*
X373380Y317500D03*
D12*
X538480Y190500D03*
X386080Y190500D03*
X601980Y177800D03*
X322580Y177800D03*
D17*
X576580Y188087D03*
X576580Y177673D03*
D10*
X645160Y25400D03*
X899160Y25400D03*
D11*
X627380Y144780D03*
X915670Y8890D03*
D12*
X759460Y12700D03*
X784860Y12700D03*
X810260Y12700D03*
X835660Y12700D03*
D13*
X746506Y76200D03*
X756920Y76200D03*
X767334Y76200D03*
D12*
X734060Y12700D03*
D13*
X815213Y134620D03*
X825627Y134620D03*
D12*
X708660Y12700D03*
D14*
X861060Y317500D03*
X683260Y317500D03*
D15*
X699760Y165100D02*
X844560Y165100D01*
D16*
X861060Y317500D03*
X683260Y317500D03*
D12*
X848360Y190500D03*
X695960Y190500D03*
X911860Y177800D03*
X632460Y177800D03*
D17*
X886460Y188087D03*
X886460Y177673D03*
D10*
X955040Y25400D03*
X1209040Y25400D03*
D11*
X937260Y144780D03*
X1225550Y8890D03*
D12*
X1069340Y12700D03*
X1094740Y12700D03*
X1120140Y12700D03*
X1145540Y12700D03*
D13*
X1056386Y76200D03*
X1066800Y76200D03*
X1077214Y76200D03*
D12*
X1043940Y12700D03*
D13*
X1125093Y134620D03*
X1135507Y134620D03*
D12*
X1018540Y12700D03*
D14*
X1170940Y317500D03*
X993140Y317500D03*
D15*
X1009640Y165100D02*
X1154440Y165100D01*
D16*
X1170940Y317500D03*
X993140Y317500D03*
D12*
X1158240Y190500D03*
X1005840Y190500D03*
X1221740Y177800D03*
X942340Y177800D03*
D17*
X1196340Y188087D03*
X1196340Y177673D03*
D10*
X25400Y411480D03*
X279400Y411480D03*
D11*
X7620Y530860D03*
X295910Y394970D03*
D12*
X139700Y398780D03*
X165100Y398780D03*
X190500Y398780D03*
X215900Y398780D03*
D13*
X126746Y462280D03*
X137160Y462280D03*
X147574Y462280D03*
D12*
X114300Y398780D03*
D13*
X195453Y520700D03*
X205867Y520700D03*
D12*
X88900Y398780D03*
D14*
X241300Y703580D03*
X63500Y703580D03*
D15*
X80000Y551180D02*
X224800Y551180D01*
D16*
X241300Y703580D03*
X63500Y703580D03*
D12*
X228600Y576580D03*
X76200Y576580D03*
X292100Y563880D03*
X12700Y563880D03*
D17*
X266700Y574167D03*
X266700Y563753D03*
D10*
X335280Y411480D03*
X589280Y411480D03*
D11*
X317500Y530860D03*
X605790Y394970D03*
D12*
X449580Y398780D03*
X474980Y398780D03*
X500380Y398780D03*
X525780Y398780D03*
D13*
X436626Y462280D03*
X447040Y462280D03*
X457454Y462280D03*
D12*
X424180Y398780D03*
D13*
X505333Y520700D03*
X515747Y520700D03*
D12*
X398780Y398780D03*
D14*
X551180Y703580D03*
X373380Y703580D03*
D15*
X389880Y551180D02*
X534680Y551180D01*
D16*
X551180Y703580D03*
X373380Y703580D03*
D12*
X538480Y576580D03*
X386080Y576580D03*
X601980Y563880D03*
X322580Y563880D03*
D17*
X576580Y574167D03*
X576580Y563753D03*
D10*
X645160Y411480D03*
X899160Y411480D03*
D11*
X627380Y530860D03*
X915670Y394970D03*
D12*
X759460Y398780D03*
X784860Y398780D03*
X810260Y398780D03*
X835660Y398780D03*
D13*
X746506Y462280D03*
X756920Y462280D03*
X767334Y462280D03*
D12*
X734060Y398780D03*
D13*
X815213Y520700D03*
X825627Y520700D03*
D12*
X708660Y398780D03*
D14*
X861060Y703580D03*
X683260Y703580D03*
D15*
X699760Y551180D02*
X844560Y551180D01*
D16*
X861060Y703580D03*
X683260Y703580D03*
D12*
X848360Y576580D03*
X695960Y576580D03*
X911860Y563880D03*
X632460Y563880D03*
D17*
X886460Y574167D03*
X886460Y563753D03*
D10*
X955040Y411480D03*
X1209040Y411480D03*
D11*
X937260Y530860D03*
X1225550Y394970D03*
D12*
X1069340Y398780D03*
X1094740Y398780D03*
X1120140Y398780D03*
X1145540Y398780D03*
D13*
X1056386Y462280D03*
X1066800Y462280D03*
X1077214Y462280D03*
D12*
X1043940Y398780D03*
D13*
X1125093Y520700D03*
X1135507Y520700D03*
D12*
X1018540Y398780D03*
D14*
X1170940Y703580D03*
X993140Y703580D03*
D15*
X1009640Y551180D02*
X1154440Y551180D01*
D16*
X1170940Y703580D03*
X993140Y703580D03*
D12*
X1158240Y576580D03*
X1005840Y576580D03*
X1221740Y563880D03*
X942340Y563880D03*
D17*
X1196340Y574167D03*
X1196340Y563753D03*
D10*
X25400Y797560D03*
X279400Y797560D03*
D11*
X7620Y916940D03*
X295910Y781050D03*
D12*
X139700Y784860D03*
X165100Y784860D03*
X190500Y784860D03*
X215900Y784860D03*
D13*
X126746Y848360D03*
X137160Y848360D03*
X147574Y848360D03*
D12*
X114300Y784860D03*
D13*
X195453Y906780D03*
X205867Y906780D03*
D12*
X88900Y784860D03*
D14*
X241300Y1089660D03*
X63500Y1089660D03*
D15*
X80000Y937260D02*
X224800Y937260D01*
D16*
X241300Y1089660D03*
X63500Y1089660D03*
D12*
X228600Y962660D03*
X76200Y962660D03*
X292100Y949960D03*
X12700Y949960D03*
D17*
X266700Y960247D03*
X266700Y949833D03*
D10*
X335280Y797560D03*
X589280Y797560D03*
D11*
X317500Y916940D03*
X605790Y781050D03*
D12*
X449580Y784860D03*
X474980Y784860D03*
X500380Y784860D03*
X525780Y784860D03*
D13*
X436626Y848360D03*
X447040Y848360D03*
X457454Y848360D03*
D12*
X424180Y784860D03*
D13*
X505333Y906780D03*
X515747Y906780D03*
D12*
X398780Y784860D03*
D14*
X551180Y1089660D03*
X373380Y1089660D03*
D15*
X389880Y937260D02*
X534680Y937260D01*
D16*
X551180Y1089660D03*
X373380Y1089660D03*
D12*
X538480Y962660D03*
X386080Y962660D03*
X601980Y949960D03*
X322580Y949960D03*
D17*
X576580Y960247D03*
X576580Y949833D03*
D10*
X645160Y797560D03*
X899160Y797560D03*
D11*
X627380Y916940D03*
X915670Y781050D03*
D12*
X759460Y784860D03*
X784860Y784860D03*
X810260Y784860D03*
X835660Y784860D03*
D13*
X746506Y848360D03*
X756920Y848360D03*
X767334Y848360D03*
D12*
X734060Y784860D03*
D13*
X815213Y906780D03*
X825627Y906780D03*
D12*
X708660Y784860D03*
D14*
X861060Y1089660D03*
X683260Y1089660D03*
D15*
X699760Y937260D02*
X844560Y937260D01*
D16*
X861060Y1089660D03*
X683260Y1089660D03*
D12*
X848360Y962660D03*
X695960Y962660D03*
X911860Y949960D03*
X632460Y949960D03*
D17*
X886460Y960247D03*
X886460Y949833D03*
D10*
X955040Y797560D03*
X1209040Y797560D03*
D11*
X937260Y916940D03*
X1225550Y781050D03*
D12*
X1069340Y784860D03*
X1094740Y784860D03*
X1120140Y784860D03*
X1145540Y784860D03*
D13*
X1056386Y848360D03*
X1066800Y848360D03*
X1077214Y848360D03*
D12*
X1043940Y784860D03*
D13*
X1125093Y906780D03*
X1135507Y906780D03*
D12*
X1018540Y784860D03*
D14*
X1170940Y1089660D03*
X993140Y1089660D03*
D15*
X1009640Y937260D02*
X1154440Y937260D01*
D16*
X1170940Y1089660D03*
X993140Y1089660D03*
D12*
X1158240Y962660D03*
X1005840Y962660D03*
X1221740Y949960D03*
X942340Y949960D03*
D17*
X1196340Y960247D03*
X1196340Y949833D03*
D18*
X-26238Y1126490D03*
X1260678Y1126490D03*
D19*
X-35293Y63500D02*
X-35290Y63722D01*
X-35282Y63944D01*
X-35268Y64166D01*
X-35249Y64388D01*
X-35225Y64608D01*
X-35195Y64829D01*
X-35160Y65048D01*
X-35119Y65267D01*
X-35073Y65484D01*
X-35022Y65700D01*
X-34965Y65915D01*
X-34903Y66129D01*
X-34836Y66340D01*
X-34764Y66551D01*
X-34686Y66759D01*
X-34604Y66965D01*
X-34516Y67169D01*
X-34424Y67372D01*
X-34326Y67571D01*
X-34224Y67768D01*
X-34117Y67963D01*
X-34005Y68155D01*
X-33888Y68344D01*
X-33767Y68531D01*
X-33641Y68714D01*
X-33511Y68894D01*
X-33376Y69071D01*
X-33238Y69244D01*
X-33095Y69414D01*
X-32947Y69581D01*
X-32796Y69744D01*
X-32641Y69903D01*
X-32482Y70058D01*
X-32319Y70209D01*
X-32152Y70357D01*
X-31982Y70500D01*
X-31809Y70638D01*
X-31632Y70773D01*
X-31452Y70903D01*
X-31269Y71029D01*
X-31082Y71150D01*
X-30893Y71267D01*
X-30701Y71379D01*
X-30506Y71486D01*
X-30309Y71588D01*
X-30110Y71686D01*
X-29907Y71778D01*
X-29703Y71866D01*
X-29497Y71948D01*
X-29289Y72026D01*
X-29078Y72098D01*
X-28867Y72165D01*
X-28653Y72227D01*
X-28438Y72284D01*
X-28222Y72335D01*
X-28005Y72381D01*
X-27786Y72422D01*
X-27567Y72457D01*
X-27346Y72487D01*
X-27126Y72511D01*
X-26904Y72530D01*
X-26682Y72544D01*
X-26460Y72552D01*
X-26238Y72555D01*
X-26016Y72552D01*
X-25794Y72544D01*
X-25572Y72530D01*
X-25350Y72511D01*
X-25130Y72487D01*
X-24909Y72457D01*
X-24690Y72422D01*
X-24471Y72381D01*
X-24254Y72335D01*
X-24038Y72284D01*
X-23823Y72227D01*
X-23609Y72165D01*
X-23398Y72098D01*
X-23187Y72026D01*
X-22979Y71948D01*
X-22773Y71866D01*
X-22569Y71778D01*
X-22366Y71686D01*
X-22167Y71588D01*
X-21970Y71486D01*
X-21775Y71379D01*
X-21583Y71267D01*
X-21394Y71150D01*
X-21207Y71029D01*
X-21024Y70903D01*
X-20844Y70773D01*
X-20667Y70638D01*
X-20494Y70500D01*
X-20324Y70357D01*
X-20157Y70209D01*
X-19994Y70058D01*
X-19835Y69903D01*
X-19680Y69744D01*
X-19529Y69581D01*
X-19381Y69414D01*
X-19238Y69244D01*
X-19100Y69071D01*
X-18965Y68894D01*
X-18835Y68714D01*
X-18709Y68531D01*
X-18588Y68344D01*
X-18471Y68155D01*
X-18359Y67963D01*
X-18252Y67768D01*
X-18150Y67571D01*
X-18052Y67372D01*
X-17960Y67169D01*
X-17872Y66965D01*
X-17790Y66759D01*
X-17712Y66551D01*
X-17640Y66340D01*
X-17573Y66129D01*
X-17511Y65915D01*
X-17454Y65700D01*
X-17403Y65484D01*
X-17357Y65267D01*
X-17316Y65048D01*
X-17281Y64829D01*
X-17251Y64608D01*
X-17227Y64388D01*
X-17208Y64166D01*
X-17194Y63944D01*
X-17186Y63722D01*
X-17183Y63500D01*
X-17186Y63278D01*
X-17194Y63056D01*
X-17208Y62834D01*
X-17227Y62612D01*
X-17251Y62392D01*
X-17281Y62171D01*
X-17316Y61952D01*
X-17357Y61733D01*
X-17403Y61516D01*
X-17454Y61300D01*
X-17511Y61085D01*
X-17573Y60871D01*
X-17640Y60660D01*
X-17712Y60449D01*
X-17790Y60241D01*
X-17872Y60035D01*
X-17960Y59831D01*
X-18052Y59628D01*
X-18150Y59429D01*
X-18252Y59232D01*
X-18359Y59037D01*
X-18471Y58845D01*
X-18588Y58656D01*
X-18709Y58469D01*
X-18835Y58286D01*
X-18965Y58106D01*
X-19100Y57929D01*
X-19238Y57756D01*
X-19381Y57586D01*
X-19529Y57419D01*
X-19680Y57256D01*
X-19835Y57097D01*
X-19994Y56942D01*
X-20157Y56791D01*
X-20324Y56643D01*
X-20494Y56500D01*
X-20667Y56362D01*
X-20844Y56227D01*
X-21024Y56097D01*
X-21207Y55971D01*
X-21394Y55850D01*
X-21583Y55733D01*
X-21775Y55621D01*
X-21970Y55514D01*
X-22167Y55412D01*
X-22366Y55314D01*
X-22569Y55222D01*
X-22773Y55134D01*
X-22979Y55052D01*
X-23187Y54974D01*
X-23398Y54902D01*
X-23609Y54835D01*
X-23823Y54773D01*
X-24038Y54716D01*
X-24254Y54665D01*
X-24471Y54619D01*
X-24690Y54578D01*
X-24909Y54543D01*
X-25130Y54513D01*
X-25350Y54489D01*
X-25572Y54470D01*
X-25794Y54456D01*
X-26016Y54448D01*
X-26238Y54445D01*
X-26460Y54448D01*
X-26682Y54456D01*
X-26904Y54470D01*
X-27126Y54489D01*
X-27346Y54513D01*
X-27567Y54543D01*
X-27786Y54578D01*
X-28005Y54619D01*
X-28222Y54665D01*
X-28438Y54716D01*
X-28653Y54773D01*
X-28867Y54835D01*
X-29078Y54902D01*
X-29289Y54974D01*
X-29497Y55052D01*
X-29703Y55134D01*
X-29907Y55222D01*
X-30110Y55314D01*
X-30309Y55412D01*
X-30506Y55514D01*
X-30701Y55621D01*
X-30893Y55733D01*
X-31082Y55850D01*
X-31269Y55971D01*
X-31452Y56097D01*
X-31632Y56227D01*
X-31809Y56362D01*
X-31982Y56500D01*
X-32152Y56643D01*
X-32319Y56791D01*
X-32482Y56942D01*
X-32641Y57097D01*
X-32796Y57256D01*
X-32947Y57419D01*
X-33095Y57586D01*
X-33238Y57756D01*
X-33376Y57929D01*
X-33511Y58106D01*
X-33641Y58286D01*
X-33767Y58469D01*
X-33888Y58656D01*
X-34005Y58845D01*
X-34117Y59037D01*
X-34224Y59232D01*
X-34326Y59429D01*
X-34424Y59628D01*
X-34516Y59831D01*
X-34604Y60035D01*
X-34686Y60241D01*
X-34764Y60449D01*
X-34836Y60660D01*
X-34903Y60871D01*
X-34965Y61085D01*
X-35022Y61300D01*
X-35073Y61516D01*
X-35119Y61733D01*
X-35160Y61952D01*
X-35195Y62171D01*
X-35225Y62392D01*
X-35249Y62612D01*
X-35268Y62834D01*
X-35282Y63056D01*
X-35290Y63278D01*
X-35293Y63500D01*
D20*
X-26238Y63500D03*
M02*
