M48
;GenerationSoftware,Autodesk,EAGLE,9.6.2*%
;CreationDate,2021-01-21T09:48:55Z*%
FMAT,2
ICI,OFF
METRIC,TZ,000.000
T4C0.300
T3C1.016
T2C3.302
T1C6.500
%
G90
M71
T1
X55118Y31750
X24130Y31750
X6350Y108966
X37338Y31750
X24130Y70358
X6350Y70358
X117094Y31750
X99314Y31750
X6350Y31750
X86106Y31750
X68326Y31750
X55118Y70358
X37338Y70358
X86106Y70358
X68326Y70358
X117094Y70358
X99314Y70358
X24130Y108966
X55118Y108966
X37338Y108966
X86106Y108966
X68326Y108966
X117094Y108966
X99314Y108966
T2
X95504Y2540
X27940Y2540
X33528Y2540
X58928Y2540
X64516Y2540
X89916Y2540
X89916Y79756
X120904Y2540
X2540Y41148
X27940Y41148
X33528Y41148
X58928Y41148
X64516Y41148
X89916Y41148
X95504Y41148
X120904Y41148
X2540Y79756
X33528Y79756
X27940Y79756
X58928Y79756
X64516Y79756
X2540Y2540
X95504Y79756
X120904Y79756
T3
X42418Y1270
X39878Y1270
X53848Y19050
X38608Y19050
X60198Y17780
X32258Y17780
X75946Y1270
X78486Y1270
X81026Y1270
X83566Y1270
X73406Y1270
X70866Y1270
X84836Y19050
X69596Y19050
X91186Y17780
X63246Y17780
X106934Y1270
X109474Y1270
X112014Y1270
X114554Y1270
X104394Y1270
X101854Y1270
X115824Y19050
X100584Y19050
X122174Y17780
X94234Y17780
X13970Y39878
X16510Y39878
X19050Y39878
X21590Y39878
X11430Y39878
X8890Y39878
X22860Y57658
X7620Y57658
X29210Y56388
X1270Y56388
X44958Y39878
X47498Y39878
X50038Y39878
X52578Y39878
X42418Y39878
X39878Y39878
X13970Y1270
X16510Y1270
X53848Y57658
X38608Y57658
X60198Y56388
X32258Y56388
X75946Y39878
X78486Y39878
X81026Y39878
X83566Y39878
X73406Y39878
X70866Y39878
X19050Y1270
X21590Y1270
X84836Y57658
X69596Y57658
X91186Y56388
X63246Y56388
X106934Y39878
X109474Y39878
X112014Y39878
X114554Y39878
X104394Y39878
X101854Y39878
X11430Y1270
X8890Y1270
X94234Y94996
X115824Y57658
X100584Y57658
X122174Y56388
X94234Y56388
X13970Y78486
X16510Y78486
X19050Y78486
X21590Y78486
X11430Y78486
X8890Y78486
X22860Y19050
X7620Y19050
X22860Y96266
X7620Y96266
X29210Y94996
X1270Y94996
X44958Y78486
X47498Y78486
X50038Y78486
X52578Y78486
X42418Y78486
X39878Y78486
X29210Y17780
X1270Y17780
X53848Y96266
X38608Y96266
X60198Y94996
X32258Y94996
X75946Y78486
X78486Y78486
X81026Y78486
X83566Y78486
X73406Y78486
X70866Y78486
X44958Y1270
X47498Y1270
X84836Y96266
X69596Y96266
X91186Y94996
X63246Y94996
X106934Y78486
X109474Y78486
X112014Y78486
X114554Y78486
X104394Y78486
X101854Y78486
X50038Y1270
X52578Y1270
X115824Y96266
X100584Y96266
X122174Y94996
T4
X71882Y10287
X80391Y13462
X117221Y9652
X106680Y13462
X119507Y9652
X107442Y13462
X102870Y5842
X108966Y5842
X113919Y6477
X110109Y13462
X96901Y11684
X99187Y11684
X117221Y8636
X118364Y7874
X113665Y10541
X116586Y14097
X119634Y13970
X122174Y10160
X119888Y6096
X115824Y2540
X105664Y2921
X108204Y2921
X100584Y2540
X98044Y6350
X94234Y10160
X101854Y11430
X114554Y4397
X105664Y4397
X105895Y10033
X112014Y5080
X107569Y10033
X107569Y5842
X105664Y5842
X104457Y10097
X102870Y10287
X111379Y13462
X24257Y48260
X13716Y52070
X26543Y48260
X14478Y52070
X9906Y44450
X16002Y44450
X20955Y45085
X17145Y52070
X3937Y50292
X6223Y50292
X24257Y47244
X25400Y46482
X20701Y49149
X23622Y52705
X26670Y52578
X29210Y48768
X26924Y44704
X22860Y41148
X12700Y41529
X15240Y41529
X7620Y41148
X5080Y44958
X1270Y48768
X8890Y50038
X21590Y43005
X12700Y43005
X12931Y48641
X19050Y43688
X14605Y48641
X14605Y44450
X12700Y44450
X11493Y48704
X9906Y48895
X18415Y52070
X55245Y48260
X44704Y52070
X57531Y48260
X45466Y52070
X40894Y44450
X46990Y44450
X51943Y45085
X48133Y52070
X34925Y50292
X37211Y50292
X55245Y47244
X56388Y46482
X51689Y49149
X54610Y52705
X57658Y52578
X60198Y48768
X57912Y44704
X53848Y41148
X43688Y41529
X46228Y41529
X38608Y41148
X36068Y44958
X32258Y48768
X39878Y50038
X52578Y43005
X43688Y43005
X43919Y48641
X50038Y43688
X45593Y48641
X45593Y44450
X43688Y44450
X42482Y48704
X40894Y48895
X49403Y52070
X86233Y48260
X75692Y52070
X88519Y48260
X76454Y52070
X71882Y44450
X77978Y44450
X82931Y45085
X79121Y52070
X65913Y50292
X68199Y50292
X86233Y47244
X87376Y46482
X82677Y49149
X85598Y52705
X88646Y52578
X91186Y48768
X88900Y44704
X84836Y41148
X74676Y41529
X77216Y41529
X69596Y41148
X67056Y44958
X63246Y48768
X70866Y50038
X83566Y43005
X74676Y43005
X74907Y48641
X81026Y43688
X76581Y48641
X76581Y44450
X74676Y44450
X73470Y48704
X71882Y48895
X80391Y52070
X117221Y48260
X106680Y52070
X119507Y48260
X107442Y52070
X102870Y44450
X108966Y44450
X113919Y45085
X110109Y52070
X96901Y50292
X99187Y50292
X117221Y47244
X118364Y46482
X113665Y49149
X116586Y52705
X119634Y52578
X122174Y48768
X119888Y44704
X115824Y41148
X105664Y41529
X108204Y41529
X100584Y41148
X98044Y44958
X94234Y48768
X101854Y50038
X114554Y43005
X105664Y43005
X105895Y48641
X112014Y43688
X107569Y48641
X107569Y44450
X105664Y44450
X104457Y48704
X102870Y48895
X111379Y52070
X24257Y86868
X13716Y90678
X26543Y86868
X14478Y90678
X9906Y83058
X16002Y83058
X20955Y83693
X17145Y90678
X3937Y88900
X6223Y88900
X24257Y85852
X25400Y85090
X20701Y87757
X23622Y91313
X26670Y91186
X29210Y87376
X26924Y83312
X22860Y79756
X12700Y80137
X15240Y80137
X7620Y79756
X5080Y83566
X1270Y87376
X8890Y88646
X21590Y81613
X12700Y81613
X12931Y87249
X19050Y82296
X14605Y87249
X14605Y83058
X12700Y83058
X11493Y87313
X9906Y87503
X18415Y90678
X55245Y86868
X44704Y90678
X57531Y86868
X45466Y90678
X40894Y83058
X46990Y83058
X51943Y83693
X48133Y90678
X34925Y88900
X37211Y88900
X55245Y85852
X56388Y85090
X51689Y87757
X54610Y91313
X57658Y91186
X60198Y87376
X57912Y83312
X53848Y79756
X43688Y80137
X46228Y80137
X38608Y79756
X36068Y83566
X32258Y87376
X39878Y88646
X52578Y81613
X43688Y81613
X43919Y87249
X50038Y82296
X45593Y87249
X45593Y83058
X43688Y83058
X42482Y87313
X40894Y87503
X49403Y90678
X86233Y86868
X75692Y90678
X88519Y86868
X76454Y90678
X71882Y83058
X77978Y83058
X82931Y83693
X79121Y90678
X65913Y88900
X68199Y88900
X86233Y85852
X87376Y85090
X82677Y87757
X85598Y91313
X88646Y91186
X91186Y87376
X88900Y83312
X84836Y79756
X74676Y80137
X77216Y80137
X69596Y79756
X67056Y83566
X63246Y87376
X70866Y88646
X83566Y81613
X74676Y81613
X74907Y87249
X81026Y82296
X76581Y87249
X76581Y83058
X74676Y83058
X73470Y87313
X71882Y87503
X80391Y90678
X117221Y86868
X106680Y90678
X119507Y86868
X107442Y90678
X102870Y83058
X108966Y83058
X113919Y83693
X110109Y90678
X96901Y88900
X99187Y88900
X117221Y85852
X118364Y85090
X113665Y87757
X116586Y91313
X119634Y91186
X122174Y87376
X119888Y83312
X115824Y79756
X105664Y80137
X108204Y80137
X100584Y79756
X98044Y83566
X94234Y87376
X101854Y88646
X114554Y81613
X105664Y81613
X105895Y87249
X112014Y82296
X107569Y87249
X107569Y83058
X105664Y83058
X104457Y87313
X102870Y87503
X111379Y90678
X29210Y36830
X27940Y36830
X20320Y36830
X19050Y36830
X17780Y36830
X16510Y36830
X16510Y35560
X16510Y34290
X16510Y33020
X16510Y31750
X16510Y30480
X16510Y29210
X16510Y27940
X16510Y26670
X16510Y25400
X16510Y24130
X17780Y25400
X17780Y24130
X19050Y25400
X19050Y24130
X20320Y25400
X20320Y24130
X21590Y25400
X21590Y24130
X22860Y21590
X24130Y21590
X25400Y21590
X26670Y21590
X27940Y21590
X29210Y21590
X29210Y22860
X29210Y24130
X29210Y25400
X29210Y26670
X29210Y27940
X29210Y35560
X1270Y36830
X1270Y35560
X1270Y27940
X1270Y26670
X1270Y25400
X1270Y24130
X1270Y22860
X1270Y21590
X2540Y21590
X3810Y21590
X5080Y21590
X6350Y21590
X7620Y21590
X8890Y24130
X8890Y25400
X10160Y24130
X10160Y25400
X11430Y24130
X11430Y25400
X12700Y24130
X12700Y25400
X13970Y24130
X13970Y25400
X13970Y26670
X13970Y27940
X13970Y29210
X13970Y30480
X13970Y31750
X13970Y33020
X13970Y34290
X13970Y35560
X13970Y36830
X12700Y36830
X11430Y36830
X10160Y36830
X2540Y36830
X60198Y36830
X58928Y36830
X51308Y36830
X50038Y36830
X48768Y36830
X47498Y36830
X47498Y35560
X47498Y34290
X47498Y33020
X47498Y31750
X47498Y30480
X47498Y29210
X47498Y27940
X47498Y26670
X47498Y25400
X47498Y24130
X48768Y25400
X48768Y24130
X50038Y25400
X50038Y24130
X51308Y25400
X51308Y24130
X52578Y25400
X52578Y24130
X53848Y21590
X55118Y21590
X56388Y21590
X57658Y21590
X58928Y21590
X60198Y21590
X60198Y22860
X60198Y24130
X60198Y25400
X60198Y26670
X60198Y27940
X60198Y35560
X32258Y36830
X32258Y35560
X32258Y27940
X32258Y26670
X32258Y25400
X32258Y24130
X32258Y22860
X32258Y21590
X33528Y21590
X34798Y21590
X36068Y21590
X37338Y21590
X38608Y21590
X39878Y24130
X39878Y25400
X41148Y24130
X41148Y25400
X42418Y24130
X42418Y25400
X43688Y24130
X43688Y25400
X44958Y24130
X44958Y25400
X44958Y26670
X44958Y27940
X44958Y29210
X44958Y30480
X44958Y31750
X44958Y33020
X44958Y34290
X44958Y35560
X44958Y36830
X43688Y36830
X42418Y36830
X41148Y36830
X33528Y36830
X91186Y36830
X89916Y36830
X82296Y36830
X81026Y36830
X79756Y36830
X78486Y36830
X78486Y35560
X78486Y34290
X78486Y33020
X78486Y31750
X78486Y30480
X78486Y29210
X78486Y27940
X78486Y26670
X78486Y25400
X78486Y24130
X79756Y25400
X79756Y24130
X81026Y25400
X81026Y24130
X82296Y25400
X82296Y24130
X83566Y25400
X83566Y24130
X84836Y21590
X86106Y21590
X87376Y21590
X88646Y21590
X89916Y21590
X91186Y21590
X91186Y22860
X91186Y24130
X91186Y25400
X91186Y26670
X91186Y27940
X91186Y35560
X63246Y36830
X63246Y35560
X63246Y27940
X63246Y26670
X63246Y25400
X63246Y24130
X63246Y22860
X63246Y21590
X64516Y21590
X65786Y21590
X67056Y21590
X68326Y21590
X69596Y21590
X70866Y24130
X70866Y25400
X72136Y24130
X72136Y25400
X73406Y24130
X73406Y25400
X74676Y24130
X74676Y25400
X75946Y24130
X75946Y25400
X75946Y26670
X75946Y27940
X75946Y29210
X75946Y30480
X75946Y31750
X75946Y33020
X75946Y34290
X75946Y35560
X75946Y36830
X74676Y36830
X73406Y36830
X72136Y36830
X64516Y36830
X122174Y36830
X120904Y36830
X113284Y36830
X112014Y36830
X110744Y36830
X109474Y36830
X109474Y35560
X109474Y34290
X109474Y33020
X109474Y31750
X109474Y30480
X109474Y29210
X109474Y27940
X109474Y26670
X109474Y25400
X109474Y24130
X110744Y25400
X110744Y24130
X112014Y25400
X112014Y24130
X113284Y25400
X113284Y24130
X114554Y25400
X114554Y24130
X115824Y21590
X117094Y21590
X118364Y21590
X119634Y21590
X120904Y21590
X122174Y21590
X122174Y22860
X122174Y24130
X122174Y25400
X122174Y26670
X122174Y27940
X122174Y35560
X94234Y36830
X94234Y35560
X94234Y27940
X94234Y26670
X94234Y25400
X94234Y24130
X94234Y22860
X94234Y21590
X95504Y21590
X96774Y21590
X98044Y21590
X99314Y21590
X100584Y21590
X101854Y24130
X101854Y25400
X103124Y24130
X103124Y25400
X104394Y24130
X104394Y25400
X105664Y24130
X105664Y25400
X106934Y24130
X106934Y25400
X106934Y26670
X106934Y27940
X106934Y29210
X106934Y30480
X106934Y31750
X106934Y33020
X106934Y34290
X106934Y35560
X106934Y36830
X105664Y36830
X104394Y36830
X103124Y36830
X95504Y36830
X24257Y9652
X13716Y13462
X26543Y9652
X14478Y13462
X9906Y5842
X16002Y5842
X20955Y6477
X17145Y13462
X3937Y11684
X6223Y11684
X24257Y8636
X25400Y7874
X29210Y75438
X27940Y75438
X20320Y75438
X19050Y75438
X17780Y75438
X16510Y75438
X16510Y74168
X16510Y72898
X16510Y71628
X16510Y70358
X16510Y69088
X16510Y67818
X16510Y66548
X16510Y65278
X16510Y64008
X16510Y62738
X17780Y64008
X17780Y62738
X19050Y64008
X19050Y62738
X20320Y64008
X20320Y62738
X21590Y64008
X21590Y62738
X22860Y60198
X24130Y60198
X25400Y60198
X26670Y60198
X27940Y60198
X29210Y60198
X29210Y61468
X29210Y62738
X29210Y64008
X29210Y65278
X29210Y66548
X29210Y74168
X1270Y75438
X1270Y74168
X1270Y66548
X1270Y65278
X1270Y64008
X1270Y62738
X1270Y61468
X1270Y60198
X2540Y60198
X3810Y60198
X5080Y60198
X6350Y60198
X7620Y60198
X8890Y62738
X8890Y64008
X10160Y62738
X10160Y64008
X11430Y62738
X11430Y64008
X12700Y62738
X12700Y64008
X13970Y62738
X13970Y64008
X13970Y65278
X13970Y66548
X13970Y67818
X13970Y69088
X13970Y70358
X13970Y71628
X13970Y72898
X13970Y74168
X13970Y75438
X12700Y75438
X11430Y75438
X10160Y75438
X2540Y75438
X20701Y10541
X23622Y14097
X26670Y13970
X29210Y10160
X26924Y6096
X22860Y2540
X12700Y2921
X15240Y2921
X7620Y2540
X5080Y6350
X1270Y10160
X8890Y11430
X60198Y75438
X58928Y75438
X51308Y75438
X50038Y75438
X48768Y75438
X47498Y75438
X47498Y74168
X47498Y72898
X47498Y71628
X47498Y70358
X47498Y69088
X47498Y67818
X47498Y66548
X47498Y65278
X47498Y64008
X47498Y62738
X48768Y64008
X48768Y62738
X50038Y64008
X50038Y62738
X51308Y64008
X51308Y62738
X52578Y64008
X52578Y62738
X53848Y60198
X55118Y60198
X56388Y60198
X57658Y60198
X58928Y60198
X60198Y60198
X60198Y61468
X60198Y62738
X60198Y64008
X60198Y65278
X60198Y66548
X60198Y74168
X32258Y75438
X32258Y74168
X32258Y66548
X32258Y65278
X32258Y64008
X32258Y62738
X32258Y61468
X32258Y60198
X33528Y60198
X34798Y60198
X36068Y60198
X37338Y60198
X38608Y60198
X39878Y62738
X39878Y64008
X41148Y62738
X41148Y64008
X42418Y62738
X42418Y64008
X43688Y62738
X43688Y64008
X44958Y62738
X44958Y64008
X44958Y65278
X44958Y66548
X44958Y67818
X44958Y69088
X44958Y70358
X44958Y71628
X44958Y72898
X44958Y74168
X44958Y75438
X43688Y75438
X42418Y75438
X41148Y75438
X33528Y75438
X21590Y4397
X12700Y4397
X12931Y10033
X19050Y5080
X14605Y10033
X14605Y5842
X12700Y5842
X11493Y10097
X9906Y10287
X18415Y13462
X55245Y9652
X44704Y13462
X91186Y75438
X89916Y75438
X82296Y75438
X81026Y75438
X79756Y75438
X78486Y75438
X78486Y74168
X78486Y72898
X78486Y71628
X78486Y70358
X78486Y69088
X78486Y67818
X78486Y66548
X78486Y65278
X78486Y64008
X78486Y62738
X79756Y64008
X79756Y62738
X81026Y64008
X81026Y62738
X82296Y64008
X82296Y62738
X83566Y64008
X83566Y62738
X84836Y60198
X86106Y60198
X87376Y60198
X88646Y60198
X89916Y60198
X91186Y60198
X91186Y61468
X91186Y62738
X91186Y64008
X91186Y65278
X91186Y66548
X91186Y74168
X63246Y75438
X63246Y74168
X63246Y66548
X63246Y65278
X63246Y64008
X63246Y62738
X63246Y61468
X63246Y60198
X64516Y60198
X65786Y60198
X67056Y60198
X68326Y60198
X69596Y60198
X70866Y62738
X70866Y64008
X72136Y62738
X72136Y64008
X73406Y62738
X73406Y64008
X74676Y62738
X74676Y64008
X75946Y62738
X75946Y64008
X75946Y65278
X75946Y66548
X75946Y67818
X75946Y69088
X75946Y70358
X75946Y71628
X75946Y72898
X75946Y74168
X75946Y75438
X74676Y75438
X73406Y75438
X72136Y75438
X64516Y75438
X57531Y9652
X45466Y13462
X40894Y5842
X46990Y5842
X51943Y6477
X48133Y13462
X34925Y11684
X37211Y11684
X55245Y8636
X56388Y7874
X51689Y10541
X54610Y14097
X122174Y75438
X120904Y75438
X113284Y75438
X112014Y75438
X110744Y75438
X109474Y75438
X109474Y74168
X109474Y72898
X109474Y71628
X109474Y70358
X109474Y69088
X109474Y67818
X109474Y66548
X109474Y65278
X109474Y64008
X109474Y62738
X110744Y64008
X110744Y62738
X112014Y64008
X112014Y62738
X113284Y64008
X113284Y62738
X114554Y64008
X114554Y62738
X115824Y60198
X117094Y60198
X118364Y60198
X119634Y60198
X120904Y60198
X122174Y60198
X122174Y61468
X122174Y62738
X122174Y64008
X122174Y65278
X122174Y66548
X122174Y74168
X94234Y75438
X94234Y74168
X94234Y66548
X94234Y65278
X94234Y64008
X94234Y62738
X94234Y61468
X94234Y60198
X95504Y60198
X96774Y60198
X98044Y60198
X99314Y60198
X100584Y60198
X101854Y62738
X101854Y64008
X57658Y13970
X103124Y64008
X104394Y62738
X104394Y64008
X105664Y62738
X105664Y64008
X106934Y62738
X106934Y64008
X106934Y65278
X106934Y66548
X106934Y67818
X106934Y69088
X106934Y70358
X106934Y71628
X106934Y72898
X106934Y74168
X106934Y75438
X105664Y75438
X104394Y75438
X103124Y75438
X95504Y75438
X60198Y10160
X57912Y6096
X53848Y2540
X43688Y2921
X46228Y2921
X38608Y2540
X36068Y6350
X32258Y10160
X39878Y11430
X52578Y4397
X43688Y4397
X43919Y10033
X29210Y114046
X27940Y114046
X20320Y114046
X19050Y114046
X17780Y114046
X16510Y114046
X16510Y112776
X16510Y111506
X16510Y110236
X16510Y108966
X16510Y107696
X16510Y106426
X16510Y105156
X16510Y103886
X16510Y102616
X16510Y101346
X17780Y102616
X17780Y101346
X19050Y102616
X19050Y101346
X20320Y102616
X20320Y101346
X21590Y102616
X21590Y101346
X22860Y98806
X24130Y98806
X25400Y98806
X26670Y98806
X27940Y98806
X29210Y98806
X29210Y100076
X29210Y101346
X29210Y102616
X29210Y103886
X29210Y105156
X29210Y112776
X1270Y114046
X1270Y112776
X1270Y105156
X1270Y103886
X1270Y102616
X1270Y101346
X1270Y100076
X1270Y98806
X2540Y98806
X3810Y98806
X5080Y98806
X6350Y98806
X7620Y98806
X8890Y101346
X8890Y102616
X10160Y101346
X10160Y102616
X11430Y101346
X11430Y102616
X12700Y101346
X12700Y102616
X13970Y101346
X13970Y102616
X13970Y103886
X13970Y105156
X13970Y106426
X13970Y107696
X13970Y108966
X13970Y110236
X13970Y111506
X13970Y112776
X13970Y114046
X12700Y114046
X11430Y114046
X10160Y114046
X2540Y114046
X50038Y5080
X45593Y10033
X45593Y5842
X43688Y5842
X42482Y10097
X40894Y10287
X49403Y13462
X86233Y9652
X75692Y13462
X88519Y9652
X76454Y13462
X71882Y5842
X60198Y114046
X58928Y114046
X51308Y114046
X50038Y114046
X48768Y114046
X47498Y114046
X47498Y112776
X47498Y111506
X47498Y110236
X47498Y108966
X47498Y107696
X47498Y106426
X47498Y105156
X47498Y103886
X47498Y102616
X47498Y101346
X48768Y102616
X48768Y101346
X50038Y102616
X50038Y101346
X51308Y102616
X51308Y101346
X52578Y102616
X52578Y101346
X53848Y98806
X55118Y98806
X56388Y98806
X57658Y98806
X58928Y98806
X60198Y98806
X60198Y100076
X60198Y101346
X60198Y102616
X60198Y103886
X60198Y105156
X60198Y112776
X32258Y114046
X32258Y112776
X32258Y105156
X32258Y103886
X32258Y102616
X32258Y101346
X32258Y100076
X32258Y98806
X33528Y98806
X34798Y98806
X36068Y98806
X37338Y98806
X38608Y98806
X39878Y101346
X39878Y102616
X41148Y101346
X41148Y102616
X42418Y101346
X42418Y102616
X43688Y101346
X43688Y102616
X44958Y101346
X44958Y102616
X44958Y103886
X44958Y105156
X44958Y106426
X44958Y107696
X103124Y62738
X44958Y110236
X44958Y111506
X44958Y112776
X44958Y114046
X43688Y114046
X42418Y114046
X41148Y114046
X33528Y114046
X77978Y5842
X82931Y6477
X79121Y13462
X65913Y11684
X68199Y11684
X86233Y8636
X87376Y7874
X82677Y10541
X85598Y14097
X88646Y13970
X91186Y10160
X88900Y6096
X91186Y114046
X89916Y114046
X82296Y114046
X81026Y114046
X79756Y114046
X78486Y114046
X78486Y112776
X78486Y111506
X78486Y110236
X78486Y108966
X78486Y107696
X78486Y106426
X78486Y105156
X78486Y103886
X78486Y102616
X78486Y101346
X79756Y102616
X79756Y101346
X81026Y102616
X81026Y101346
X82296Y102616
X82296Y101346
X83566Y102616
X83566Y101346
X84836Y98806
X86106Y98806
X87376Y98806
X88646Y98806
X89916Y98806
X91186Y98806
X91186Y100076
X91186Y101346
X91186Y102616
X91186Y103886
X91186Y105156
X91186Y112776
X63246Y114046
X63246Y112776
X63246Y105156
X63246Y103886
X63246Y102616
X63246Y101346
X63246Y100076
X63246Y98806
X64516Y98806
X65786Y98806
X67056Y98806
X68326Y98806
X69596Y98806
X70866Y101346
X70866Y102616
X72136Y101346
X72136Y102616
X73406Y101346
X73406Y102616
X74676Y101346
X74676Y102616
X75946Y101346
X75946Y102616
X75946Y103886
X75946Y105156
X75946Y106426
X75946Y107696
X75946Y108966
X75946Y110236
X75946Y111506
X75946Y112776
X75946Y114046
X74676Y114046
X73406Y114046
X72136Y114046
X64516Y114046
X84836Y2540
X74676Y2921
X77216Y2921
X69596Y2540
X67056Y6350
X63246Y10160
X70866Y11430
X83566Y4397
X74676Y4397
X74907Y10033
X81026Y5080
X76581Y10033
X122174Y114046
X120904Y114046
X113284Y114046
X112014Y114046
X110744Y114046
X109474Y114046
X109474Y112776
X109474Y111506
X109474Y110236
X109474Y108966
X109474Y107696
X109474Y106426
X109474Y105156
X109474Y103886
X109474Y102616
X109474Y101346
X110744Y102616
X110744Y101346
X112014Y102616
X112014Y101346
X113284Y102616
X113284Y101346
X114554Y102616
X114554Y101346
X115824Y98806
X117094Y98806
X118364Y98806
X119634Y98806
X120904Y98806
X122174Y98806
X122174Y100076
X122174Y101346
X122174Y102616
X122174Y103886
X122174Y105156
X122174Y112776
X94234Y114046
X94234Y112776
X94234Y105156
X94234Y103886
X94234Y102616
X94234Y101346
X94234Y100076
X94234Y98806
X95504Y98806
X96774Y98806
X98044Y98806
X99314Y98806
X100584Y98806
X101854Y101346
X101854Y102616
X103124Y101346
X103124Y102616
X104394Y101346
X104394Y102616
X105664Y101346
X105664Y102616
X106934Y101346
X106934Y102616
X106934Y103886
X106934Y105156
X106934Y106426
X106934Y107696
X106934Y108966
X106934Y110236
X106934Y111506
X106934Y112776
X106934Y114046
X105664Y114046
X104394Y114046
X103124Y114046
X95504Y114046
X76581Y5842
X74676Y5842
X73470Y10097
X44958Y108966
M30